<?xml version="1.0" encoding="utf-8"?>
<!-- Generator: Adobe Illustrator 26.0.1, SVG Export Plug-In . SVG Version: 6.00 Build 0)  -->
<svg version="1.1" id="Layer_1" xmlns="http://www.w3.org/2000/svg" xmlns:xlink="http://www.w3.org/1999/xlink" x="0px" y="0px"
	 viewBox="0 0 1280 720" style="enable-background:new 0 0 1280 720;" xml:space="preserve">
<style type="text/css">
	.st0{fill:#2D2A35;}
	.st1{fill:#494750;}
	.st2{fill:#FFFFFF;}
	.st3{fill:#070708;}
	.st4{fill:#E4E2DC;}
	.st5{fill:#615F5F;}
	.st6{fill:#5F5D5D;}
	.st7{fill:#6A6867;}
	.st8{fill:#0D0D0E;}
	.st9{fill:#666464;}
	.st10{fill:#5B5858;}
	.st11{fill:#DD211F;}
	.st12{fill:#F3F2F3;}
	.st13{fill:#FDFDFD;}
	.st14{fill:#FBFBFB;}
</style>
<g id="Layer_2_00000001651306094497686480000010238620812116702107_">
</g>
<g>
	<path class="st0" d="M353,272.8c0.1-0.5,0.2-0.9,0.2-1.4c2.1-6,2.4-12.4,3.4-18.7c0.1-0.3,0.1-0.6,0.2-0.9c1.2-2.1,1.8-4.3,1.6-6.7
		c0.1-0.4,0.3-0.9,0.4-1.3c1.2-1.5,1.4-3.2,1.3-5c0.1-0.4,0.2-0.7,0.2-1.1c0.9-0.6,0.7-1.5,0.7-2.4c0,0,0.1-0.2,0.1-0.2
		c0.7-0.5,0.6-1.1,0.6-1.8c0.1-0.3,0.2-0.6,0.4-0.9c0.1-0.2,0.1-0.5,0.2-0.7c-0.1-0.2,0-0.4,0.1-0.6c0.7-0.5,0.7-1.2,0.6-1.9
		c8.5-27.5,20.8-53.1,37.2-76.7c41.1-59,96.4-97.9,165.9-116.3c31.7-8.4,64.1-10.6,96.8-7.9c104.1,8.6,194.7,74.5,236.5,167.9
		c19.6,43.7,28.3,89.6,24.7,137.4c-10,131.9-100.7,226.6-208.5,257c-36,10.2-72.6,13.1-109.6,8.9c-101-11.5-187.9-74.6-229.8-166.5
		c-0.9-2-1.7-4.1-2.5-6.2c0.1-1.2-0.3-2.2-1.2-2.9l0,0c0.1-1.1-0.1-2.1-1.2-2.7c-0.1-0.2-0.1-0.4-0.2-0.7c-0.1-0.2-0.2-0.4-0.3-0.7
		c-0.1-0.3-0.2-0.6-0.3-0.8c0.1-0.2,0-0.3-0.1-0.4c-0.2-0.5-0.4-1-0.6-1.5c0.2-2.1-0.7-3.8-2-5.3l0,0c-0.1-0.8,0-1.6-0.3-2.3
		c-5.5-16.7-9.9-33.6-12.1-51c-1.4-10.7-2.9-21.4-3.1-32.2c-0.2-7.3-0.2-14.6-0.2-21.8c0.1-6.2-0.2-12.5,0.6-18.7
		C353.1,281.2,353.7,277,353,272.8z M364.9,239.6L364.9,239.6c-1.8,3.4-2.8,7-2.8,10.8c-0.1,0.4-0.2,0.9-0.3,1.3
		c-1.7,2.5-2,5.2-1.8,8.1c-0.1,0.5-0.2,0.9-0.2,1.4c-1.8,3.1-2,6.6-1.8,10.1c0,0.5-0.1,0.9-0.1,1.4c-0.6,1-1.7,2-0.5,3.3
		c-0.1,0.7-0.1,1.4-0.2,2c-0.7,0.5-1,1.2-1,2c-0.7,9.7-1.6,19.4-1.9,29.1c-0.2,7.7,0.3,15.4,0.6,23c0.4,14.8,2.8,29.3,6.3,43.6
		c1.6,6.6,3,13.3,5.9,19.5l0,0c0.3,1.9,0.1,4,1.8,5.4c0.5,3.4,2.2,6.4,3.3,9.6c10.7,29.1,25.8,55.6,45.2,79.7
		c67.9,84.6,178.9,122.9,284.8,98c123.5-29,213.1-137.6,217.3-264.3c2.3-70.8-19.1-134.2-64.1-189c-67.2-82-173.9-119.3-277.7-96.2
		c-86.9,19.3-150.6,69.8-192,148.4c-7,13.3-12.3,27.3-17.3,41.4c-1.2,1.8-1.9,3.7-1.8,5.8c-0.1,0.3-0.2,0.6-0.3,0.9
		c-0.8,0.5-0.7,1.2-0.6,2c-0.2,0.7-0.4,1.4-0.6,2.1C364.8,239.3,364.8,239.4,364.9,239.6z"/>
	<path class="st1" d="M353,272.8c0.7,4.2,0,8.5-0.5,12.5c-0.8,6.3-0.5,12.5-0.6,18.7c-0.1,7.2,0,14.5,0.2,21.8
		c0.2,10.8,1.7,21.5,3.1,32.2c2.3,17.4,6.6,34.4,12.1,51c0.2,0.7,0.2,1.5,0.3,2.3c-4.7-11.4-7.8-23.4-10.5-35.4
		c-7.4-32.8-8.2-66-4.9-99.3C352.4,275.4,352.8,274.1,353,272.8z"/>
	<path class="st1" d="M356.6,252.7c-1,6.2-1.2,12.6-3.4,18.7C353.7,265.1,354.7,258.8,356.6,252.7z"/>
	<path class="st1" d="M358.3,245.1c0.2,2.4-0.4,4.6-1.6,6.7C356.8,249.5,357.5,247.3,358.3,245.1z"/>
	<path class="st1" d="M360.1,238.8c0,1.8-0.1,3.5-1.3,5C358.7,242,359.2,240.3,360.1,238.8z"/>
	<path class="st1" d="M367.7,411.4c1.3,1.5,2.2,3.2,2,5.3C368.6,415.1,367.9,413.4,367.7,411.4z"/>
	<path class="st1" d="M372.3,423.6c0.9,0.8,1.3,1.7,1.2,2.9C372.8,425.7,372.4,424.7,372.3,423.6z"/>
	<path class="st1" d="M371.2,420.9c1.1,0.6,1.3,1.6,1.2,2.7C371.6,422.8,371.3,421.9,371.2,420.9z"/>
	<path class="st1" d="M361,235.3c0,0.9,0.2,1.8-0.7,2.4C360.5,236.9,360.8,236.1,361,235.3z"/>
	<path class="st1" d="M362.9,229c0.1,0.7,0.1,1.5-0.6,1.9C362.2,230.2,362.5,229.6,362.9,229z"/>
	<path class="st1" d="M361.6,233.2c0.1,0.7,0.1,1.4-0.6,1.8C361.3,234.4,361.4,233.8,361.6,233.2z"/>
	<path class="st1" d="M370.2,418.3c0.2,0.1,0.2,0.2,0.1,0.4c0,0-0.2-0.2-0.2-0.2L370.2,418.3z"/>
	<path class="st1" d="M370.6,419.5c0.1,0.2,0.2,0.4,0.3,0.7C370.9,420,370.8,419.8,370.6,419.5z"/>
	<path class="st1" d="M362.2,231.5c-0.1,0.2-0.1,0.5-0.2,0.7C362.1,232,362.1,231.8,362.2,231.5z"/>
	<path class="st2" d="M357.2,278.1c0.1-0.7,0.1-1.4,0.2-2c0.4-1.1,0.7-2.2,0.5-3.3c0-0.5,0.1-0.9,0.1-1.4c0.9-3.3,1.4-6.7,1.8-10.1
		c0.1-0.5,0.2-0.9,0.2-1.4c0.9-2.6,1.4-5.3,1.8-8.1c0.1-0.4,0.2-0.9,0.3-1.3c1.2-3.5,2.2-7.1,2.8-10.8c0,0,0-0.1,0-0.1
		c0,0,0.2-0.2,0.2-0.2l-0.1-0.3c0.2-0.7,0.4-1.4,0.6-2.1c0.6-0.6,0.7-1.2,0.6-2c0.1-0.3,0.2-0.6,0.3-0.9c0.8-1.9,1.6-3.8,1.8-5.8
		c5-14.1,10.3-28.2,17.3-41.4c41.5-78.6,105.1-129.1,192-148.4c103.8-23,210.5,14.3,277.7,96.2c44.9,54.9,66.4,118.2,64.1,189
		c-4.2,126.7-93.7,235.3-217.3,264.3c-105.9,24.9-216.9-13.4-284.8-98c-19.4-24.2-34.5-50.6-45.2-79.7c-1.2-3.2-2.9-6.2-3.3-9.6
		c-0.4-1.9-0.8-3.8-1.8-5.4c0,0,0,0,0,0c-0.2-0.9-0.2-1.8-0.5-2.6c-6.7-23.3-10.1-47.1-10.9-71.3
		C355.1,306.9,355.9,292.5,357.2,278.1z M570.5,72c-0.3-1.8-0.7-3.5-1-5.3c-0.3-1.7-1-2.6-2.9-2c-4,1.2-8,2.2-12,3.3
		c-1.2,0.3-1.6,1-1.1,2.2c1,2.6,1.9,5.2,2.9,7.8c0.3,3,1.6,5.8,2.5,8.7c2,6.4,2,6.4-4.1,8.9c-0.4,0.2-0.9,0.3-1.2,0.6
		c-2.5,1.7-3.8,0.6-4.7-1.9c-2.3-6.2-5.3-12.1-6.6-18.6c-0.5-2.4-1.5-2.6-3.5-1.6c-3.5,1.7-7.1,3.2-10.7,4.8
		c-1.3,0.6-1.9,1.3-1.2,2.8c3.4,7.3,6.7,14.6,10.1,21.9c0.5,1.1,1.1,2.5,2.4,2.6c4,0.3,8,1.8,11.9,0c7.7-3.4,15.8-5.6,23.9-7.8
		c1.2-0.3,2.7-0.4,2.7-2c0.1-1.7,0.3-3.7-1.8-4.5c-1-0.4-0.9-1.1-1-1.8c-1.4-5.5-2.7-11.1-4.1-16.6C571,72.9,571,72.4,570.5,72z
		 M828.3,156.6c-5.5,2.1-9.2,6.8-13.6,10.4c-0.9,0.7,0.4,1.2,0.8,1.7c-1.9-1-2.6,0.6-3.5,1.6c-1.1,1.2,0.3,2,0.9,2.8
		c1.6,2.1,3.3,4.2,4.9,6.4c5.5,7.5,10.6,15.2,15.2,23.3c2.3,4.1,3,4.2,7,1.6c0.7-0.4,1.3-0.8,2-1.3c0.5-0.4,1.1-0.9,0.6-1.7
		c-1.8-3.1-2.8-6.8-6.1-8.8c1,0,1.1-0.5,0.7-1.3c-2.3-4.4-4.8-8.8-8.5-12.3c-1.7-1.6-0.9-2,0.5-2.8c1.7-1,2.4,0.3,3.2,1.4
		c2.5,3.7,4.9,7.4,7.3,11.2c3.6,5.9,3.5,5.8,9.7,2.5c2.4-1.3,2-2.4,0.9-4.1c-3.3-4.9-6.6-9.8-9.9-14.7c-0.8-1.1-1.7-2.1-1.4-3.6
		c2.2-1,3.3,0.4,4.3,1.9c4.3,6.4,8.5,12.9,12.2,19.7c1.5,2.7,3.2,3.2,5.7,1.4c0.7-0.5,1.5-1,2.3-1.4c1.4-0.7,1.5-1.6,0.7-3
		c-7.4-13-15.7-25.3-25-37c-1-1.3-2-1.7-3.4-0.5C833.3,152.2,830.4,154,828.3,156.6z M470.8,151.3c3.3-7.9,6.9-15.6,11.4-22.9
		c3.2-5.2,3-5.6-0.9-10.4c-1.4-1.7-2.1-1.1-3.2-0.1c0.2-2.1-1.5-3.4-2.4-5c-0.9-1.5-2-1.5-3.3-0.4c-11.3,9.3-22,19.3-31.7,30.3
		c-0.4,0.5-1.3,1.3-0.6,1.6c3.1,1.5,4.7,5.1,8.5,5.5c2.1,2.5,4.6,4.5,7.1,6.5c2,1.6,3.5,4.1,6.2,4.7c-0.9,2,1.4,2.4,2,3.6
		c1,1.8,2,1.7,3.6,0.3c2.4-2.2,4.4-4.7,7-6.6c1.7-1.2,1.5-2.9,0.3-4.4C473.7,152.8,472.6,151.4,470.8,151.3z M781.2,133.2
		c-5.3,4-5.3,4.2-0.4,8c0.7,0.5,1.4,1.1,2.1,1.6c5.2,3.8,5.2,3.8,9.9-0.7c2.4-1.6,3.5-4.7,6.4-6.1c0.7,5.5,1.3,10.7,1.3,16
		c-3.9,3.4-3.9,3.5-0.4,7.2c1.1,1.2,2.3,2.5,3.4,3.7c3.5,3.8,4.4,3.7,7.5-0.6c3.8-3.6,7.7-7.2,11.5-10.8c3.1-3,6.2-6.1,9.4-9.1
		c1.2-1.1,0.9-1.8,0-2.7c-2.9-3.1-5.8-6.2-8.8-9.3c-1.4-1.5-2.5-0.9-3.7,0.3c-1.9,1.8-3.5,3.9-5.8,5.4c-0.3-1.6-0.7-2.9-0.7-4.2
		c0-8.1-2.4-14.8-10.2-18.7c-0.7-0.3-1.3-0.9-1.8-1.5c-1.3-1.6-2.5-1.6-3.7,0.1c-2.1,3-4.4,5.9-6.6,8.9
		C787.5,124.9,784.3,129.1,781.2,133.2z M425,181c-2-1.5-4-2.9-5.8-4.5c-1.7-1.5-2.8-1.3-3.9,0.7c-1.6,3-3.3,5.8-5,8.7
		c-2.8,4.8-2.7,5.1,2.5,7.1c2.3,1.9,5,3,7.5,4.4c1.9,1.1,4,3.1,5.9,2.9c2.5-0.2,2.4-3.6,3.6-5.5c3.4-5.4,3.3-5.5,8.6-3
		c3.2,4.7,6.8,4.7,9.5,0.2c0.8-1.3,1.6-2.7,2.4-4c2.7-4.6,2.5-5.3-2.2-8.1c-0.2-2-1.8-2.7-3.2-3.5c-1.9-1-2-2-0.7-3.6
		c2.2-2.7,4.2-5.4,6.3-8.2c0.6-0.8,1.5-1.8,0.5-2.6c-2.6-2-4.5-4.9-7.8-5.8c-2.8-1.5-4.6-4.2-7.2-6c-0.7-0.5-1.3-1.5-2.1-0.3
		c-2.4,4.2-5.9,7.6-8.5,11.7c-0.7,1.2-0.9,2.4,0.4,3.3c2,1.6,4.2,3,6.2,4.6c1.2,0.9,1.1-0.7,1.8-0.7c0.4,2.2-4.9,11.5-7,12.1
		C426.2,181.3,425.6,181,425,181z M748,90.8c-2.4,5.2-4.8,10.4-7.2,15.6c-4.7,6.2-4.7,6.2,2,10.1c6.1,3.5,6.9,3.3,9.6-3.3
		c1.6-1.9,2.7-1.6,3.6,0.7c0.6,1.4,1.6,2.6,2.4,3.9c1.6,3.2,3.1,6.4,5,9.4c1.6,2.5,4.1,4.2,7.1,4.8c2.7,0.5,2.9-2.7,4.7-3.7
		c0.1-0.1,0.1-0.2,0.2-0.3c1.6-1,1-2.2,0.4-3.5c-1.3-2.6-2.6-5.2-4.1-8.2c2.2,0.4,4,0.8,5.9,1.2c4.5,0.9,5.4,0.5,7.7-3.7
		c1.5-2.1,3-4.2,4.5-6.2c1-1.3,0.9-2.3-0.5-3.3c-11.5-8-23.2-15.6-35.9-21.6c-0.9-0.4-1.7-0.9-2.3,0.2
		C749.9,85.4,747.9,87.7,748,90.8z M854.3,227.7c0.2,5-0.4,10.1-1.3,14.9c-0.8,4.9,1.1,9,2.2,13.3c0.2,0.8,0.8,1.3,1.6,1.5
		c3,0.8,8.1-2.6,8.5-5.6c0.4-3.1,0.8-6.2,1.3-10.2c2.1,2.8,3.7,4.8,5,7c1.5,2.5,3.5,3.2,6.2,2.1c3-0.8,6-1.5,9-2.3
		c0.9-0.2,1.6-0.7,1.2-1.6c-1.8-4.1-1.7-9-4.7-12.6c0.1-0.2,0.2-0.5,0.1-0.6c-4-11.9-8.4-23.8-14.1-35.1c-0.7-1.5-1.5-1.2-2.6-0.6
		c-4.9,2.7-9.8,5.4-14.7,8.1c-1.1,0.6-2.1,1.2-2.3,2.6c-2.7,1.2-5.4,2.7-8.2,3.6c-2.5,0.8-2.5,2.1-1.6,4c1,2.1,1.9,4.2,2.9,6.4
		c2.7,6.3,2.8,6.5,9,3.6C853.8,225.4,854,226.3,854.3,227.7z M739.8,86.7c2.3-2.1,2.8-5.2,4.3-7.8c0.6-1.1-0.6-1.5-1.4-1.9
		c-13.1-5.6-26.5-10.1-40.3-13.7c-1-0.3-2.2-0.4-2.3,1.1c-0.1,2.3-1.4,4.5-1,6.9c-2.8,7.5-4,15.5-6.2,23.2c-0.5,1.8,0.5,2.6,2.2,3
		c2.2,0.5,4.3,1.1,6.5,1.7c8.8,2.5,17.4,5.5,25.9,9c1.9,0.8,4.1,1.4,5-1.3c2-6.1,5.1-11.6,7.4-17.6C740.1,88.5,741,87.5,739.8,86.7z
		 M387.6,239.6c-1.6,2.1-1.5,4.9-2.7,7.1c-1,1.8-0.1,2.1,1.5,2.7c4.1,1.4,8.4,1.8,12.6,2.9c5,1.2,9.9,2.9,14.7,4.7
		c3.1,1.1,4.4,0.2,5.3-2.9c3.7-12.5,8-24.7,14.1-36.3c1.3-2.4,0.8-4.1-1.7-5.1c-0.9-0.4-1.9-0.7-2.7-1.2c-2.4-1.7-3.4-0.7-4.4,1.7
		c-2.9,7.4-6.6,14.5-9,22.1c-0.6,2-1.7,2.3-3.8,2.1c-4.7-0.6-8.7-2.9-12.9-4.4c1-2.5,2-5,3-7.5c2.6-6.3,2.6-6.4,8.8-3.6
		c2.1,0.9,3.2,0.6,4.3-1.3c2.8-4.7,2.1-9.8,1.3-14.7c-0.5-3-4-2.8-5.9-4.4c-0.2-0.2-0.6-0.3-0.9-0.5c-5.5-3-5.6-3.1-8.1,2.8
		C395.9,215.5,390.6,227.2,387.6,239.6z M644.5,551.8c3.9,0.3,7.3-0.8,10.2-3.4c2.6-2.2,3.6-7.5,1.7-10.6c-1.5-2.5-3.9-0.5-5.8-0.6
		c-0.7,0-1.3,0-2,0c-9.8,0.4-19.5,0.6-29.3,0c-2.1-0.1-3.4,0.3-3.5,2.7c-0.1,2.2-0.5,4.5-0.9,6.7c-0.6,2.9,0.2,4.9,2.9,6.4
		c4.9,2.8,9.6,5.9,15.2,9.5c-5.2-0.3-9.4-0.5-13.6-0.7c-5.6-0.3-6,0.1-6.1,5.7c0,2.5,0.9,3.3,3.3,3.4c14.1,0.4,28.3,0.4,42.4-0.8
		c1-0.1,2.1-0.1,2.6-1.1c1.2-2.2-1-8.3-3.3-9.4c-4.7-2.2-9.4-4.1-13.9-6.8C644.5,552.5,644.5,552.1,644.5,551.8z M495.6,127.2
		L495.6,127.2c0.3,3.1,2.3,5.3,4.7,6.5c1.7,0.9,3-2,4.8-2.8c0.5-0.2,0.9-0.6,1.4-1c5.7-4,5.7-4,1.3-9.5c-0.1-0.8-0.7-0.7-1.2-0.7
		c0.2-1.6,1.5-1.4,2.5-1.6c4.2-1,8.5-0.2,12.7-0.3c3.3-0.1,6.6-0.2,9.4-2.1c1.4-0.9,3.6-1.5,3.2-3.8c-0.6-3.4-3.7-6.8-6.1-6.8
		c-2.5-0.1-5,0-7.5,0c-0.3-1.2,0.3-1.7,0.7-2.1c0.7-0.9,1.5-1.6,2.3-2.4c2.5-2.5,3-5.2,0.9-7.8c-1.8-2.3-3.2-4.8-4.3-7.5
		c-0.6-1.6-1.8-2.1-3.5-1.2c-11.9,6.3-23.6,12.9-34.4,21c-2.2,1.6-2.2,3.5-0.5,5.4c4.2,4.8,7.6,10.3,11.4,15.4
		C493.9,126.4,494.1,127.8,495.6,127.2z M562.4,329.9c-2.1-0.1-5.1,0.2-8.1,0.8c-19.6,3.7-34.6,14.3-38.7,36.1
		c-3.8,20.5-7.5,40.9-11.4,61.4c-1.3,7-2.2,13.9,0,20.9c3.8,12.4,16.9,22.6,30.6,23.7c16.5,1.3,29.9-3.5,39-18.3
		c4.9-8,10.7-15.5,15.3-23.7c1.3-2.4,3-3.1,5.5-2.3c7.9,2.4,17.8-2.1,19.3-10.8c0.2-1.1,0.5-1.8,1.9-1.7c10.8,0.1,21.5,0.1,32.3,0.1
		c1.4,0,2.8,0.1,3,1.9c0.8,9.8,11.9,12.7,19.1,10.7c3.2-0.9,5,0,6.8,2.4c6.8,8.8,13.7,17.5,20.5,26.2c8.9,11.3,19.9,17.1,34.9,15.6
		c24.2-2.4,37.8-20.3,33-43.9c-4.1-20.1-8-40.2-11.8-60.3c-2-10.8-6-20.4-14.5-27.6c-19-16.2-47.9-16.3-68.1,0
		c-2.5,2-5.1,2.9-8.3,2.9c-20.2-0.1-40.4-0.1-60.6,0c-2.9,0-5.1-0.8-7.4-2.6C585.5,333.9,575.2,329.8,562.4,329.9z M452.5,306.5
		c0-24.5,0-48.9,0-73.4c0-0.8,0-1.6,0-2.4c0-0.6,0.1-1.5-0.9-1.5c-0.6,0-1,0.6-1,1.2c-0.4,4.8-2.8,9-4.8,13.1
		c-4.1,8.4-4.9,17.2-4.8,26.4c0.2,35.3,0.1,70.7,0.1,106c0,4.1,0.2,8.3,0.7,12.4c0.6,4.5,2.7,7.5,5.8,7.5c10.9,0.1,21.8,0,32.7,0
		c2.3,0,3.8-1.1,4.5-3.3c0.6-1.7,0.8-3.5,0.8-5.3c0-27.3,0-54.5,0-81.8c0-2.8,0.2-5.6,0.6-8.3c2.3-14.9,17.3-27.4,33.8-25.3
		c14.2,1.8,23.6,10,26.9,23.8c2.1,8.6,1.1,17.4,1.3,26.1c0.1,7.8,0,7.7,7.7,6.8c2.5-0.3,3.2-1.2,3.2-3.5c-0.1-8.3,0.1-16.6-0.1-24.9
		c-0.1-2.8-0.7-5.5-1.3-8.2c-1.9-8.7-6.8-15.7-13.4-21.6c-11.8-10.6-25.5-13.5-40.5-9c-18.7,5.7-30.5,23.9-30.4,43
		c0.1,25,0,50.1,0,75.1c0,4.6-0.4,4.9-5.1,4.9c-3.8,0-7.6,0-11.4,0c-4.4,0-4.4,0-4.4-4.6C452.5,355.5,452.5,331,452.5,306.5z
		 M817.6,229.3c0,2.2,0,3.4,0,4.7c0,48.5,0,97,0.1,145.5c0,3.3-0.8,4.7-4.3,4.5c-4-0.3-8.1-0.1-12.1-0.1c-4.9,0-5.2-0.3-5.2-5.1
		c0-24.6,0-49.2,0-73.7c0-3.5-0.2-7-0.7-10.4c-4.2-25.5-30.1-43.6-56.4-33.2c-13.4,5.3-22.7,15-26.2,29.4c-2.1,8.9-1.5,18-1.5,27.1
		c0,7.4,0,7.3,7.2,9c3.1,0.8,3.6-0.3,3.7-3.1c0.1-8.7-0.5-17.5,0.6-26.2c2-15.9,16.3-28.6,32.8-27.5c16.4,1.1,29.5,14.3,29.3,31.7
		c-0.3,24-0.1,48-0.1,72.1c0,5.1-0.1,10.1,0,15.2c0.1,3.5,2.5,6.2,5.7,6.2c11,0,22,0,33,0c1,0,2.3,0.2,2.7-1
		c1.4-3.8,3.8-7.2,3.8-11.7c-0.1-37.7-0.1-75.4-0.1-113.1c0-7,0.6-14.2-3.6-20.5c-0.8-1.1-0.7-2.8-1.1-4.2
		C823.4,239.6,821.5,234.5,817.6,229.3z M636,204.7c54.2,0,108.4,0,162.6,0c0.9,0,1.8,0,2.7,0c0.6,0,1.5,0.2,1.7-0.6
		c0.1-0.4-0.4-1-0.7-1.4c-1.4-1.9-2.8-3.8-4.3-5.6c-1.9-2.2-3.8-4-7.3-4c-103,0.1-206,0.1-309,0c-3.4,0-6.1,1.1-8.3,3.6
		c-1.6,1.8-3.1,3.5-4.6,5.3c-1.2,1.4-0.8,2.2,0.9,2.5c1,0.2,2,0.1,3,0.1C527.2,204.7,581.6,204.7,636,204.7z M684.9,306.2
		c0,7.5,0,13.6,0,19.8c0,1.9,0.4,3.4,2.6,2.3c3.6-1.7,7.3-2.9,11.1-3.7c1-0.2,1.6-0.7,1.7-1.8c0.2-1.9,0.6-3.8,0.6-5.6
		c0.1-8.3,0.2-16.6,0-24.9c-0.2-7.3-1.1-14.4-4.4-21.1c-7.1-14.7-19.8-22.8-34.2-28.6c-11.6-4.7-23.8-5.8-36.2-4.1
		c-7,1-13.9,2-20.5,4.6c-10.5,4.1-19.4,10.5-26.6,19.3c-6,7.3-9.7,15.4-9.9,24.7c-0.3,12.2,0,24.5-0.1,36.7c0,1.8,0.4,2.9,2.3,3.4
		c3.4,0.9,6.7,2,10,2.8c2.6,0.6,3.9-0.3,3.9-3.3c0.1-12.8-0.4-25.5,0.5-38.3c0.4-6.1,2-11.6,5.5-16.3c9.7-13.1,23.3-19.7,39.2-21.3
		c12.8-1.3,24.9,2,35.9,8.8c9.9,6.1,16.3,14.7,18.1,26.6C685.4,293.2,684.4,300.3,684.9,306.2z M736,141c0-0.3,0-0.7,0.1-1
		c-5.8-2.9-11.7-5.7-17.4-8.8c-2.5-1.4-4.8-2-7.6-2c-50.4,0-100.8,0.2-151.1-0.1c-7.7,0-14.1,2.9-20.4,6.4c-2.1,1.1-3.9,2.7-6.5,4.5
		C601.3,140.1,668.7,139.7,736,141z M625.5,295c-8.4-0.5-15.3,1.8-18,10.6c-1.7,5.4,0.6,11.4,5.1,14.2c7.8,4.9,14.2,2,20.5-4.4
		c-0.7,3.7-1.3,6.6-1.9,9.5c-0.6,2.8,0.6,3.8,3.2,3.5c0.8-0.1,1.6-0.3,2.3-0.3c2.6,0.1,3-1,2.4-3.3c-0.8-2.9-1.3-5.9-2-8.9
		c6.3,5.8,12.9,8.2,20.6,3.6c4.5-2.6,6.7-8,5.5-13.4c-2.1-9.1-8.9-11.8-17.5-11.3c5-9,4.7-14.9-0.9-19.9c-4.8-4.3-11.5-4.7-17-1
		C621.7,277.9,621.1,283.4,625.5,295z M770.6,532c0.5-0.3,1.4-0.8,2.2-1.3c11.9-7.4,22.3-16.6,32.3-26.3c4.1-3.9,4-3.9-0.5-7.3
		c-0.3-0.2-0.6-0.4-0.8-0.6c-1.7-1.9-3.1-1.5-4.7,0.2c-5.4,5.5-11.3,10.6-17.3,15.5c-0.9,0.7-1.8,1.3-2.8,1.8c-1.1,0.5-2,0-2.6-1
		c-0.7-1.1,0.1-1.5,0.8-2.1c4-3.3,7.9-6.7,11.8-10c4.2-3.5,4.1-4.5-0.4-7.7c-0.5-0.3-1-0.5-1.4-0.9c-1.8-1.9-3.2-1.1-4.8,0.4
		c-4,3.8-8.2,7.3-12.3,11c-1.1,1-2.2,1.2-3.2,0c-1.4-1.5,0.4-1.9,1-2.5c4.4-3.8,9-7.5,13.3-11.4c5.2-4.8,5-4.7-0.5-9
		c-2.4-1.8-3.9-1.7-6,0.4c-7.8,7.8-16.2,14.9-25.3,21.1c-3.2,2.2-3.2,2.6-0.6,5.7c6.6,7.7,13.2,15.3,19.8,22.9
		C769.1,531.4,769.3,532.2,770.6,532z M528,508.4c-1.8,0.3-2.8,1.3-3.7,2.5c-5.9,7.3-11.8,14.7-17.7,21.9c-1.7,2.1-1.8,3.4,0.9,4.9
		c12.4,7,25.2,13,38.5,18.2c2.6,1,4,0.7,5.4-1.9c4.3-8.4,8.1-17,12.1-25.4c1-2.2,0.4-3.3-1.7-4.1c-11.2-4-21.8-9.2-32-15.3
		C529,508.9,528.4,508.6,528,508.4z M671.9,568.8c0.4,0,0.7,0,0.9-0.1c14.7-2.1,29.1-5.2,43.2-10c2.2-0.7,2.3-1.8,1.4-3.8
		c-4-8.6-8-17.3-11.8-26c-1.2-2.7-2.5-3.7-5.3-1.9c-1.3,0.8-2.9,1.1-4.4,1.5c-9.5,2.7-19.1,5-28.9,6.3c-2.2,0.3-2.9,1.1-2.5,3.5
		c1.8,9.4,3.3,18.7,5,28.1C669.7,568,670.3,569.1,671.9,568.8z M580.3,549.7c3.1,4.2,5.7,7.8,8.3,11.5c0.9,1.3,1.5,2.7,0.8,4.4
		c-0.9,2,0.2,2.5,2,2.7c3.3,0.3,6.7,0.6,10,1.1c3,0.5,4.6-0.3,5.1-3.5c1.1-7.9,2.3-15.7,3.5-23.6c1-6.8,1.1-6.7-5.9-7.6
		c-1.6-0.2-3.1-0.5-4.6-0.7c-2-0.3-3.1,0.4-3.6,2.6c-0.6,2.5-0.8,5.2-2.2,7.8c-0.9-1.1-1.8-1.9-2.2-2.9c-3.6-7.2-9.2-11.3-17.3-11.9
		c-0.1,0-0.2,0-0.3-0.1c-1.8-0.7-2.8-0.1-3.6,1.7c-3.8,9-7.6,17.9-11.5,26.8c-1,2.2-0.2,3.2,1.9,3.5c3.9,0.6,7.7,1.7,11.3,3
		c2.4,0.9,3.6,0.1,4.3-2.1C577.5,558.4,578.8,554.4,580.3,549.7z M510.3,515.6c1.4,0.1,2.7-0.3,3.6-1.3c2.1-2.2,3.9-4.6,6.1-6.7
		c2.2-2.1,1.9-3.6-0.5-5.3c-9.8-6.5-19.1-13.8-27.2-22.5c-1.2-1.3-2.3-1.4-3.8-0.2c-8,6.7-16.6,12.6-25.2,18.5
		c-2.4,1.6-2.2,3-0.2,4.8c3.1,2.9,6.1,5.9,9.2,8.9c7.2,6.8,15,12.9,23.1,18.5c3.2,2.2,4.1,2,6.3-1c0.4-0.5,0.7-1.2,1.2-1.6
		c2-1.9,1.7-3.2-0.6-4.7c-6.8-4.2-12.8-9.5-19-14.5c-1.8-1.4-2.1-2.7-0.1-4.3c1.6-1.2,3-2.7,4.6-3.9c7.3-6.1,4.7-6.3,13-0.1
		c2.3,1.7,2.8,3.3,0.3,5.3c-1,0.8-1.7,1.8-2.7,2.6c-1.7,1.4-1.9,2.4-0.1,4.2C501.9,515.7,506,515.9,510.3,515.6z M597.9,83.8
		c-4.8,0.9-9,1.8-13.3,2.6c-2.7,0.5-3.6,2.1-2.7,4.6c0.8,2.3,0.5,5.3,4.9,4.4c11.2-2.3,22.4-4.7,33.9-4.5c0.9,0,1.7-0.1,2.2-1.1
		c1-2.3-0.4-8.1-2.6-9.4c-3.1-1.8-6.3-3.4-9.5-4.9c-4.9-2.4-9.8-4.6-15-7.1c2.4-0.7,4.2-1.3,6-1.9c2.1-0.7,3.5-0.4,3.9,2.1
		c0.1,0.9,0,2,1.5,2.3c6.6,1.3,13.8-4.4,13.8-11c0-4.4-0.4-4.8-4.9-4.5c-11.1,0.7-22,2.4-32.9,4.5c-7.3,1.4-8.4,0.9-6.5,9.2
		c1.3,5.6,4,8.6,9.5,9.8C590.2,79.6,593.9,81.4,597.9,83.8z M653.6,55.8c-1.6,0.5-4.4-1.6-4.6,2.6c-0.5,9.4-0.3,18.9-1.9,28.2
		c-0.5,2.6,0.6,3.5,3.2,3.6c10.1,0.5,20.1,1.7,30,3.8c6,1.3,5.9,1.2,7.6-4.7c0.8-2.6,0.1-3.4-2.3-3.7c-6.5-1.1-13-2.4-19.6-3
		c-0.7-0.1-2.5,0.2-2-1c1.5-3.4,0.8-7.1,1.5-10.5c1.1-4.9,1.3-5.2,6.2-4.4c8,1.3,7.1,0.2,5.4,7.9c-0.6,2.6,0.4,3.2,2.3,3.8
		c4.2,1.6,7.6-0.8,11.2-2.3c1.2-0.5,1.7-1.1,1.9-2.4c0.5-3.2,1.2-6.4,1.8-9.6c0.3-1.7,0.1-2.8-2.2-3.2
		C679.5,58.5,666.7,56.8,653.6,55.8z M727.2,554.5c0.3-0.1,0.7-0.2,1-0.3c12.2-5.4,24.1-11.4,35.6-18.1c1.5-0.9,1.5-1.7,0.6-2.9
		c-0.7-0.9-1.3-1.8-1.9-2.8c-1.7-2.5-3.4-2.8-6.2-1.2c-5.3,3.3-11,6-16.4,9.1c-2.1,1.2-3.2,1-4.5-1.1c-3.4-5.8-7-11.5-10.6-17.2
		c-0.7-1.1-1.2-2.4-3.1-1.5c-3.1,1.5-6.4,2.8-9.5,4.2c-1.1,0.5-1.8,1-1.1,2.5c4.7,9.2,9.3,18.4,13.9,27.6
		C725.4,553.7,726,554.5,727.2,554.5z M756.3,320.5c1.1-0.1,1.6,0.7,2.4,1.1c3.4,1.7,7.9,1.2,10.7-1.2c2.4-2.1,2.9-5.3,1.4-9.3
		c-2.3-6.1-6.5-10.6-11.6-14.5c-3-2.3-5.4-2.6-8.5-0.3c-5.4,4.1-9.8,8.8-12.2,15.2c-1.3,3.4-1.1,6.6,1.7,9.3c2.4,2.2,6,2.5,9.4,0.8
		c0.8-0.4,1.5-0.8,2.3-1.3c0.7,2.8,0.6,4.2,0,5.7c-0.4,1.1-2.5,1.7-1.7,2.9c0.7,1.1,2.5,0.4,3.8,0.4c1.6,0.1,3.2,0,4.8,0
		C756.1,326.6,755.8,323.7,756.3,320.5z M508.5,297.8c-6.1,0.1-9.6,5.9-7,11.7c3,6.8,8.3,11.9,13,17.4c0.9,1.1,1.8,1.2,2.8,0.1
		c4.5-5.1,9.4-9.9,12.8-16c2.2-4,1.3-8.8-2-11.5c-3-2.5-6.3-2.2-10.3,1c-1.6,1.3-2.7,1.1-3.9-0.3
		C512.4,298.6,510.6,297.9,508.5,297.8z"/>
	<path class="st1" d="M357.2,278.1c-1.3,14.4-2.1,28.8-1.6,43.3c0.8,24.2,4.2,48,10.9,71.3c0.2,0.8,0.3,1.7,0.5,2.6
		c-3-6.2-4.3-12.9-5.9-19.5c-3.5-14.3-5.8-28.8-6.3-43.6c-0.2-7.7-0.8-15.4-0.6-23c0.3-9.7,1.3-19.4,1.9-29.1
		C356.2,279.3,356.5,278.6,357.2,278.1z"/>
	<path class="st1" d="M364.9,239.7c-0.6,3.7-1.6,7.3-2.8,10.8C362.1,246.6,363.1,243,364.9,239.7z"/>
	<path class="st1" d="M359.8,261.3c-0.4,3.4-0.8,6.8-1.8,10.1C357.8,267.8,358,264.4,359.8,261.3z"/>
	<path class="st1" d="M361.8,251.8c-0.3,2.8-0.8,5.5-1.8,8.1C359.8,257,360.1,254.2,361.8,251.8z"/>
	<path class="st1" d="M367,395.2c1,1.7,1.4,3.5,1.8,5.4C367.1,399.2,367.2,397.2,367,395.2z"/>
	<path class="st1" d="M368.3,228.2c-0.2,2.1-0.9,4-1.8,5.8C366.4,231.9,367.1,230,368.3,228.2z"/>
	<path class="st1" d="M357.9,272.7c0.2,1.2-0.1,2.3-0.5,3.3C356.3,274.7,357.3,273.7,357.9,272.7z"/>
	<path class="st1" d="M366.2,235c0.1,0.8,0,1.5-0.6,2C365.5,236.2,365.4,235.5,366.2,235z"/>
	<path class="st1" d="M365,239.1l0.1,0.3c0,0-0.2,0.2-0.2,0.2C364.8,239.4,364.8,239.3,365,239.1z"/>
	<path class="st3" d="M562.4,329.9c12.8-0.1,23.1,4.1,32.2,11.4c2.2,1.8,4.5,2.6,7.4,2.6c20.2-0.1,40.4-0.1,60.6,0
		c3.2,0,5.7-0.8,8.3-2.9c20.2-16.3,49.2-16.2,68.1,0c8.5,7.3,12.5,16.9,14.5,27.6c3.8,20.1,7.7,40.2,11.8,60.3
		c4.8,23.6-8.8,41.5-33,43.9c-14.9,1.5-26-4.3-34.9-15.6c-6.8-8.7-13.7-17.4-20.5-26.2c-1.8-2.4-3.6-3.2-6.8-2.4
		c-7.2,1.9-18.3-1-19.1-10.7c-0.1-1.8-1.6-1.9-3-1.9c-10.8,0-21.6,0-32.3-0.1c-1.4,0-1.7,0.6-1.9,1.7c-1.5,8.7-11.4,13.2-19.3,10.8
		c-2.5-0.8-4.1-0.1-5.5,2.3c-4.6,8.2-10.3,15.7-15.3,23.7c-9.1,14.8-22.6,19.6-39,18.3c-13.8-1.1-26.9-11.3-30.6-23.7
		c-2.1-7-1.3-13.9,0-20.9c3.9-20.5,7.5-40.9,11.4-61.4c4.1-21.8,19.2-32.3,38.7-36.1C557.4,330.1,560.4,329.8,562.4,329.9z
		 M704.8,340.6c-8.2,0-15.7,2.1-22.5,6.7c-18.8,12.7-19.8,35.6-2.1,49.8c14.9,11.9,38.2,11.1,52.2-2c12.4-11.6,13-30.1,1.2-42.3
		C725.8,344.6,716,340.8,704.8,340.6z M558.9,405.4c10,0,18.6-1.8,26.2-7.3c17.1-12.4,17.9-35.4,1.8-48.3
		c-15.3-12.3-38.9-11.3-52.9,2.4c-7.4,7.2-11.1,16-9,26.4C528.3,394.6,542.8,405.6,558.9,405.4z M599,406.8c-5.4,0-9.9,3.9-9.8,8.6
		c0.1,4.5,4.2,8,9.5,8c5.3,0,9.9-4,9.8-8.6C608.5,410.3,604.3,406.8,599,406.8z M667.1,406.9c-5.3-0.1-9.7,3.5-9.8,8.1
		c-0.1,4.6,4.1,8.3,9.5,8.4c5.3,0.1,9.7-3.5,9.8-8.1C676.7,410.7,672.5,407,667.1,406.9z M651.2,386.7c0-2.6-2.4-4.6-5.6-4.5
		c-3.1,0-5.6,2.2-5.6,5c0,2.7,2.3,4.7,5.3,4.8C648.4,392,651.2,389.4,651.2,386.7z M651.2,371.8c0-2.8-1.9-4.7-4.9-4.7
		c-3.4,0-5.8,2.3-5.7,5.6c0,2.7,2,4.3,5.3,4.3C648.9,377,651.2,374.8,651.2,371.8z M626.3,372c0-2.9-2.3-5-5.5-5
		c-3.2,0-5.5,2-5.5,4.9c0,2.9,2.3,5,5.5,5C624.2,377,626.3,375,626.3,372z M621,391.9c3.3-0.1,5.4-2.1,5.3-5.1
		c-0.1-2.8-2.2-4.7-5.4-4.7c-3.3,0-5.6,2-5.5,5C615.4,390,617.7,392,621,391.9z"/>
	<path class="st4" d="M452.5,306.5c0,24.5,0,48.9,0,73.4c0,4.6,0,4.6,4.4,4.6c3.8,0,7.6,0,11.4,0c4.7,0,5.1-0.4,5.1-4.9
		c0-25,0.1-50.1,0-75.1c-0.1-19.1,11.7-37.4,30.4-43c15-4.5,28.7-1.6,40.5,9c6.6,5.9,11.4,12.9,13.4,21.6c0.6,2.7,1.2,5.5,1.3,8.2
		c0.2,8.3,0,16.6,0.1,24.9c0,2.4-0.7,3.3-3.2,3.5c-7.6,0.8-7.5,0.9-7.7-6.8c-0.1-8.7,0.8-17.5-1.3-26.1c-3.3-13.9-12.7-22-26.9-23.8
		c-16.5-2.1-31.5,10.4-33.8,25.3c-0.4,2.8-0.7,5.5-0.6,8.3c0,27.3,0,54.5,0,81.8c0,1.8-0.2,3.6-0.8,5.3c-0.8,2.2-2.2,3.3-4.5,3.3
		c-10.9,0-21.8,0.1-32.7,0c-3.1,0-5.2-3-5.8-7.5c-0.5-4.1-0.7-8.2-0.7-12.4c0-35.3,0.2-70.7-0.1-106c-0.1-9.2,0.7-18,4.8-26.4
		c2-4.1,4.4-8.3,4.8-13.1c0.1-0.6,0.5-1.2,1-1.2c0.9,0,0.8,0.9,0.9,1.5c0,0.8,0,1.6,0,2.4C452.5,257.6,452.5,282.1,452.5,306.5z"/>
	<path class="st4" d="M817.6,229.3c4,5.2,5.8,10.3,7.4,15.5c0.4,1.4,0.3,3.1,1.1,4.2c4.3,6.3,3.6,13.4,3.6,20.5
		c0,37.7-0.1,75.4,0.1,113.1c0,4.5-2.3,7.9-3.8,11.7c-0.4,1.1-1.7,1-2.7,1c-11,0-22,0-33,0c-3.2,0-5.7-2.7-5.7-6.2
		c-0.1-5,0-10.1,0-15.2c0-24-0.2-48,0.1-72.1c0.2-17.4-12.9-30.6-29.3-31.7c-16.5-1.1-30.8,11.5-32.8,27.5
		c-1.1,8.7-0.4,17.5-0.6,26.2c0,2.8-0.5,3.8-3.7,3.1c-7.2-1.7-7.2-1.6-7.2-9c0-9.1-0.6-18.2,1.5-27.1c3.5-14.4,12.7-24.1,26.2-29.4
		c26.3-10.4,52.2,7.7,56.4,33.2c0.6,3.4,0.7,6.9,0.7,10.4c0.1,24.6,0,49.2,0,73.7c0,4.8,0.4,5.1,5.2,5.1c4,0,8.1-0.2,12.1,0.1
		c3.5,0.2,4.3-1.2,4.3-4.5c-0.1-48.5-0.1-97-0.1-145.5C817.6,232.7,817.6,231.5,817.6,229.3z"/>
	<path class="st4" d="M636,204.7c-54.4,0-108.8,0-163.3,0c-1,0-2,0.1-3-0.1c-1.7-0.3-2.1-1.2-0.9-2.5c1.6-1.8,3.1-3.5,4.6-5.3
		c2.2-2.5,4.9-3.6,8.3-3.6c103,0.1,206,0.1,309,0c3.5,0,5.4,1.7,7.3,4c1.5,1.8,2.9,3.7,4.3,5.6c0.3,0.4,0.8,1,0.7,1.4
		c-0.2,0.8-1.1,0.6-1.7,0.6c-0.9,0-1.8,0-2.7,0C744.4,204.7,690.2,204.7,636,204.7z"/>
	<path class="st4" d="M684.9,306.2c-0.5-5.9,0.5-13-0.5-20.2c-1.8-11.8-8.2-20.4-18.1-26.6c-11-6.8-23-10.2-35.9-8.8
		c-15.9,1.6-29.5,8.2-39.2,21.3c-3.4,4.7-5.1,10.2-5.5,16.3c-0.9,12.8-0.3,25.5-0.5,38.3c0,3-1.3,3.9-3.9,3.3
		c-3.4-0.8-6.7-1.9-10-2.8c-1.9-0.5-2.3-1.6-2.3-3.4c0.1-12.2-0.2-24.5,0.1-36.7c0.2-9.3,4-17.4,9.9-24.7c7.2-8.8,16-15.2,26.6-19.3
		c6.6-2.6,13.6-3.6,20.5-4.6c12.4-1.7,24.6-0.6,36.2,4.1c14.4,5.8,27,13.9,34.2,28.6c3.3,6.7,4.2,13.9,4.4,21.1
		c0.2,8.3,0.1,16.6,0,24.9c0,1.9-0.4,3.8-0.6,5.6c-0.1,1-0.7,1.6-1.7,1.8c-3.8,0.8-7.6,2-11.1,3.7c-2.3,1.1-2.7-0.4-2.6-2.3
		C684.9,319.8,684.9,313.6,684.9,306.2z"/>
	<path class="st4" d="M736,141c-67.3-1.3-134.7-0.9-203-1c2.6-1.8,4.5-3.4,6.5-4.5c6.4-3.5,12.7-6.4,20.4-6.4
		c50.4,0.3,100.8,0.1,151.1,0.1c2.8,0,5.1,0.6,7.6,2c5.7,3.2,11.6,5.9,17.4,8.8C736,140.3,736,140.7,736,141z"/>
	<path class="st3" d="M625.5,295c-4.4-11.6-3.8-17.1,2.2-21.1c5.5-3.7,12.2-3.3,17,1c5.6,5,5.9,10.9,0.9,19.9
		c8.7-0.4,15.4,2.2,17.5,11.3c1.3,5.4-1,10.8-5.5,13.4c-7.7,4.5-14.3,2.1-20.6-3.6c0.6,3,1.2,5.9,2,8.9c0.6,2.3,0.2,3.4-2.4,3.3
		c-0.8,0-1.6,0.2-2.3,0.3c-2.6,0.2-3.9-0.7-3.2-3.5c0.7-2.9,1.2-5.9,1.9-9.5c-6.3,6.4-12.7,9.3-20.5,4.4c-4.5-2.8-6.8-8.8-5.1-14.2
		C610.2,296.8,617.1,294.5,625.5,295z"/>
	<path class="st5" d="M770.6,532c-1.3,0.1-1.5-0.6-1.9-1.1c-6.6-7.7-13.2-15.3-19.8-22.9c-2.7-3.1-2.6-3.5,0.6-5.7
		c9.1-6.2,17.5-13.3,25.3-21.1c2.1-2.1,3.6-2.2,6-0.4c5.6,4.3,5.8,4.3,0.5,9c-4.3,3.9-8.9,7.6-13.3,11.4c-0.7,0.6-2.4,1-1,2.5
		c1.1,1.1,2.1,0.9,3.2,0c4.1-3.7,8.3-7.2,12.3-11c1.6-1.5,3-2.3,4.8-0.4c0.4,0.4,1,0.6,1.4,0.9c4.5,3.2,4.6,4.1,0.4,7.7
		c-3.9,3.3-7.9,6.7-11.8,10c-0.7,0.6-1.5,1.1-0.8,2.1c0.6,1,1.5,1.5,2.6,1c1-0.5,2-1.1,2.8-1.8c6-4.9,11.9-9.9,17.3-15.5
		c1.7-1.7,3.1-2.1,4.7-0.2c0.2,0.3,0.5,0.4,0.8,0.6c4.6,3.4,4.6,3.4,0.5,7.3c-10,9.7-20.4,18.9-32.3,26.3
		C772,531.3,771.1,531.7,770.6,532z"/>
	<path class="st5" d="M528,508.4c0.4,0.2,1,0.5,1.6,0.8c10.2,6.1,20.8,11.3,32,15.3c2.1,0.8,2.8,1.9,1.7,4.1
		c-4,8.5-7.8,17.1-12.1,25.4c-1.3,2.6-2.8,2.9-5.4,1.9c-13.2-5.2-26.1-11.2-38.5-18.2c-2.6-1.5-2.6-2.8-0.9-4.9
		c6-7.3,11.9-14.6,17.7-21.9C525.3,509.8,526.2,508.7,528,508.4z M546,529.1c0.1-1-0.4-1.2-0.9-1.5c-3-1.4-6.1-2.8-9.1-4.2
		c-0.7-0.3-1.4-0.3-1.7,0.4c-1.7,4-5.1,6.8-7.3,10.3c-1,1.6-0.6,2.8,1,3.6c2.9,1.5,5.8,2.8,8.7,4.3c1.2,0.6,1.8,0.3,2.4-0.8
		c2.2-3.8,4.4-7.5,6.6-11.3C545.7,529.7,545.9,529.3,546,529.1z"/>
	<path class="st5" d="M671.9,568.8c-1.6,0.3-2.1-0.8-2.4-2.3c-1.6-9.4-3.2-18.8-5-28.1c-0.5-2.4,0.2-3.2,2.5-3.5
		c9.8-1.3,19.4-3.6,28.9-6.3c1.5-0.4,3.2-0.7,4.4-1.5c2.8-1.9,4.1-0.8,5.3,1.9c3.8,8.7,7.8,17.4,11.8,26c0.9,2,0.8,3-1.4,3.8
		c-14.1,4.8-28.5,7.8-43.2,10C672.5,568.8,672.3,568.8,671.9,568.8z M691.4,538.7c-2.6,0.5-5.2,1.2-7.9,1.6
		c-2.5,0.4-3.2,1.5-2.4,3.9c1.1,3.5,2.2,7,2.9,10.7c0.4,2,1,2.5,2.8,2c3.2-0.8,6.5-1.7,9.8-2.4c1.5-0.3,1.7-1.1,1.3-2.4
		c-1.3-3.9-2.6-7.8-3.9-11.7C693.5,539.1,692.8,538.5,691.4,538.7z"/>
	<path class="st5" d="M580.3,549.7c-1.5,4.7-2.8,8.7-4.1,12.7c-0.7,2.2-1.9,3-4.3,2.1c-3.7-1.3-7.4-2.5-11.3-3
		c-2.1-0.3-2.9-1.3-1.9-3.5c3.9-8.9,7.8-17.9,11.5-26.8c0.8-1.8,1.8-2.5,3.6-1.7c0.1,0,0.2,0.1,0.3,0.1c8.1,0.6,13.7,4.8,17.3,11.9
		c0.5,1,1.3,1.7,2.2,2.9c1.4-2.6,1.6-5.3,2.2-7.8c0.5-2.1,1.6-2.8,3.6-2.6c1.6,0.2,3.1,0.6,4.6,0.7c7,0.8,6.9,0.8,5.9,7.6
		c-1.2,7.9-2.4,15.7-3.5,23.6c-0.4,3.2-2.1,4-5.1,3.5c-3.3-0.6-6.7-0.8-10-1.1c-1.8-0.2-2.9-0.7-2-2.7c0.8-1.7,0.2-3.1-0.8-4.4
		C586,557.5,583.4,553.9,580.3,549.7z"/>
	<path class="st6" d="M507.7,120.5c4.4,5.5,4.4,5.5-1.3,9.5c-0.5,0.3-0.9,0.7-1.4,1c-1.7,0.8-3.1,3.7-4.8,2.8
		c-2.3-1.2-4.3-3.5-4.6-6.5c0.1,0,0.2,0,0.3-0.1c0,0,0-0.1,0-0.2c-0.1,0.1-0.2,0.2-0.3,0.3c-1.5,0.6-1.7-0.8-2.2-1.5
		c-3.9-5.1-7.2-10.5-11.4-15.4c-1.7-2-1.7-3.8,0.5-5.4c10.8-8.1,22.5-14.7,34.4-21c1.7-0.9,2.9-0.4,3.5,1.2c1.1,2.7,2.4,5.2,4.3,7.5
		c2.1,2.6,1.6,5.4-0.9,7.8c-0.8,0.8-1.6,1.5-2.3,2.4c-0.4,0.5-1,0.9-0.7,2.1c2.4,0,4.9-0.1,7.5,0c2.5,0.1,5.6,3.4,6.1,6.8
		c0.4,2.3-1.8,2.8-3.2,3.8c-2.8,1.9-6.1,2.1-9.4,2.1c-4.2,0.1-8.5-0.7-12.7,0.3c-1.1,0.2-2.4,0.1-2.5,1.6c-0.5,0.1-1.4,0.2-1.1,0.8
		C506,121.6,506.9,120.2,507.7,120.5z M503,122.5c0.2-0.3,0.3-0.5,0.5-0.8c0,0-0.2-0.1-0.2-0.2C503.2,121.9,503.1,122.2,503,122.5
		c-0.2,0-0.2,0.1-0.3,0.2C502.8,122.7,502.9,122.6,503,122.5z M508.2,100c-3.7,1.2-6.4,2.4-8.7,4.3c-2,1.6,0.1,2.6,0.9,3.7
		c0.8,1,1.7,1.3,2.5-0.1C504.4,105.4,506.1,103.1,508.2,100z M500.6,123.9c-0.2-0.1-0.4-0.3-0.5-0.4c0,0-0.2,0.2-0.2,0.2
		c0.1,0.2,0.2,0.3,0.3,0.5C500.3,124.2,500.4,124.1,500.6,123.9z"/>
	<path class="st5" d="M510.3,515.6c-4.3,0.2-8.4,0.1-11.8-3.4c-1.8-1.8-1.7-2.8,0.1-4.2c1-0.8,1.7-1.8,2.7-2.6c2.5-2,2-3.6-0.3-5.3
		c-8.3-6.2-5.7-6-13,0.1c-1.5,1.3-3,2.7-4.6,3.9c-2,1.5-1.7,2.8,0.1,4.3c6.2,5,12.2,10.2,19,14.5c2.3,1.5,2.7,2.8,0.6,4.7
		c-0.5,0.4-0.8,1.1-1.2,1.6c-2.2,3-3.1,3.2-6.3,1c-8.2-5.6-15.9-11.7-23.1-18.5c-3.1-2.9-6.1-6-9.2-8.9c-1.9-1.8-2.1-3.2,0.2-4.8
		c8.6-5.9,17.2-11.8,25.2-18.5c1.4-1.2,2.5-1.1,3.8,0.2c8.1,8.6,17.3,15.9,27.2,22.5c2.4,1.6,2.7,3.1,0.5,5.3
		c-2.2,2.1-4,4.5-6.1,6.7C513,515.3,511.7,515.7,510.3,515.6z"/>
	<path class="st5" d="M644.4,552.8c4.4,2.7,9.2,4.6,13.9,6.8c2.3,1.1,4.5,7.2,3.3,9.4c-0.6,1.1-1.6,1-2.6,1.1
		c-14.1,1.2-28.2,1.2-42.4,0.8c-2.4-0.1-3.4-0.8-3.3-3.4c0.1-5.6,0.5-6.1,6.1-5.7c4.2,0.3,8.4,0.4,13.6,0.7
		c-5.7-3.5-10.4-6.6-15.2-9.5c-2.7-1.5-3.4-3.6-2.9-6.4c0.4-2.2,0.8-4.4,0.9-6.7c0.1-2.5,1.4-2.8,3.5-2.7c9.8,0.6,19.5,0.4,29.3,0
		c0.7,0,1.3-0.1,2,0c2,0.1,4.3-1.9,5.8,0.6c1.8,3.1,0.8,8.4-1.7,10.6c-2.9,2.5-6.3,3.7-10.2,3.4c-0.7-0.1-1.3-0.2-2-0.3
		c-0.8-5.9-1.5-6.3-9.3-4.8c3.4,1.6,5.8,4.2,9.4,4.7C642.8,552.5,643.6,552.6,644.4,552.8z"/>
	<path class="st6" d="M597.9,83.8c-4-2.4-7.7-4.2-11.8-5c-5.5-1.1-8.2-4.2-9.5-9.8c-1.9-8.3-0.8-7.8,6.5-9.2
		c10.9-2.1,21.8-3.8,32.9-4.5c4.5-0.3,4.9,0.2,4.9,4.5c0,6.6-7.2,12.3-13.8,11c-1.4-0.3-1.3-1.3-1.5-2.3c-0.4-2.5-1.8-2.8-3.9-2.1
		c-1.8,0.6-3.6,1.1-6,1.9c5.3,2.5,10.2,4.8,15,7.1c3.2,1.6,6.4,3.2,9.5,4.9c2.2,1.3,3.7,7.1,2.6,9.4c-0.5,1-1.3,1.2-2.2,1.1
		c-11.5-0.2-22.7,2.2-33.9,4.5c-4.4,0.9-4.1-2.2-4.9-4.4c-0.9-2.5,0-4.1,2.7-4.6C588.9,85.6,593.1,84.7,597.9,83.8z"/>
	<path class="st6" d="M653.6,55.8c13.1,1,25.8,2.7,38.5,5.2c2.2,0.4,2.5,1.4,2.2,3.2c-0.6,3.2-1.2,6.4-1.8,9.6
		c-0.2,1.2-0.7,1.9-1.9,2.4c-3.6,1.5-6.9,3.9-11.2,2.3c-1.8-0.7-2.8-1.3-2.3-3.8c1.7-7.7,2.6-6.6-5.4-7.9c-4.8-0.8-5.1-0.5-6.2,4.4
		c-0.8,3.5-0.1,7.1-1.5,10.5c-0.5,1.1,1.2,0.9,2,1c6.6,0.5,13.1,1.9,19.6,3c2.4,0.4,3.1,1.1,2.3,3.7c-1.8,6-1.6,6-7.6,4.7
		c-9.9-2.1-19.9-3.4-30-3.8c-2.7-0.1-3.7-1-3.2-3.6c1.6-9.3,1.4-18.8,1.9-28.2C649.3,54.3,652,56.3,653.6,55.8z"/>
	<path class="st6" d="M571,73.5c1.4,5.5,2.7,11.1,4.1,16.6c0.2,0.7,0,1.4,1,1.8c2,0.8,1.8,2.8,1.8,4.5c-0.1,1.6-1.6,1.7-2.7,2
		c-8.1,2.2-16.2,4.5-23.9,7.8c-4,1.7-8,0.2-11.9,0c-1.3-0.1-1.9-1.5-2.4-2.6c-3.4-7.3-6.7-14.7-10.1-21.9c-0.7-1.5-0.1-2.2,1.2-2.8
		c3.6-1.6,7.2-3.1,10.7-4.8c2-1,3-0.8,3.5,1.6c1.4,6.5,4.3,12.4,6.6,18.6c0.9,2.5,2.2,3.6,4.7,1.9c0.4-0.2,0.8-0.4,1.2-0.6
		c6.1-2.4,6.1-2.4,4.1-8.9c-0.9-2.9-2.2-5.6-2.5-8.7c1.9,0,2.7-2.1,4.4-2.3c0.7-0.5,1.8-0.1,2.3-1l-0.1,0
		C565.7,74.8,568.1,72.8,571,73.5z"/>
	<path class="st7" d="M398.4,233c4.3,1.5,8.3,3.8,12.9,4.4c2.1,0.3,3.2-0.1,3.8-2.1c2.4-7.6,6.1-14.7,9-22.1c0.9-2.4,2-3.4,4.4-1.7
		c0.8,0.6,1.8,0.9,2.7,1.2c2.6,1,3,2.7,1.7,5.1c-6.1,11.5-10.3,23.8-14.1,36.3c-0.9,3-2.2,4-5.3,2.9c-4.8-1.8-9.7-3.5-14.7-4.7
		c-4.2-1-8.5-1.5-12.6-2.9c-1.6-0.5-2.4-0.9-1.5-2.7c1.2-2.3,1.1-5,2.7-7.1c0.7-0.2,1.5-0.4,2.2-0.6c0.5,0,0.7-0.3,0.7-0.7l-0.1,0.1
		c1.1-0.8,2.8-0.8,2.7-2.7l0,0c2.2,0.3,3-1.7,4.6-2.6l0.3-0.1L398.4,233z"/>
	<path class="st6" d="M739.8,86.7c1.2,0.8,0.4,1.8,0.1,2.7c-2.3,5.9-5.4,11.5-7.4,17.6c-0.9,2.8-3,2.1-5,1.3
		c-8.5-3.5-17.1-6.5-25.9-9c-2.1-0.6-4.3-1.3-6.5-1.7c-1.7-0.4-2.7-1.2-2.2-3c2.2-7.7,3.3-15.7,6.2-23.2c4.9,0.8,9.5,2.8,14.1,4.7
		c0.6,1.3,0.5,2.5,0,3.9c-1.1,3.3-2.1,6.6-3.2,9.9c-0.7,2.1-0.3,3.4,2,4c2.3,0.6,4.5,1.4,6.7,2.3c1.9,0.7,2.9,0.3,3.6-1.6
		c1-2.9,2.2-5.6,3.1-8.5c0.9-2.8,1.7-5.2,5.3-2.7c0.6,0.4,1.7,0.1,2.6,0.2C735.4,84.5,737.6,85.6,739.8,86.7z"/>
	<path class="st5" d="M727.2,554.5c-1.2,0-1.7-0.8-2.2-1.7c-4.6-9.2-9.2-18.4-13.9-27.6c-0.8-1.5-0.1-2,1.1-2.5
		c3.2-1.4,6.4-2.7,9.5-4.2c1.9-0.9,2.4,0.4,3.1,1.5c3.5,5.7,7.2,11.4,10.6,17.2c1.3,2.2,2.4,2.4,4.5,1.1c5.4-3.1,11.1-5.9,16.4-9.1
		c2.7-1.7,4.5-1.4,6.2,1.2c0.6,0.9,1.2,1.9,1.9,2.8c0.9,1.2,0.9,2.1-0.6,2.9c-11.5,6.7-23.4,12.6-35.6,18.1
		C727.8,554.3,727.5,554.4,727.2,554.5z"/>
	<path class="st8" d="M756.3,320.5c-0.5,3.2-0.1,6.1,2.6,8.9c-1.6,0-3.2,0.1-4.8,0c-1.3-0.1-3.1,0.7-3.8-0.4
		c-0.8-1.2,1.3-1.8,1.7-2.9c0.5-1.5,0.7-2.8,0-5.7c-0.8,0.5-1.5,0.9-2.3,1.3c-3.4,1.7-7,1.4-9.4-0.8c-2.8-2.6-3-5.9-1.7-9.3
		c2.4-6.4,6.9-11.1,12.2-15.2c3.1-2.4,5.5-2.1,8.5,0.3c5,4,9.2,8.5,11.6,14.5c1.5,4,1,7.2-1.4,9.3c-2.8,2.4-7.3,2.9-10.7,1.2
		C757.9,321.2,757.3,320.3,756.3,320.5z"/>
	<path class="st9" d="M883.4,234.3c3,3.7,2.9,8.5,4.7,12.6c0.4,0.9-0.4,1.3-1.2,1.6c-3,0.7-6,1.5-9,2.3c-1.5-1.1-1.9-3.1-3.1-4.3
		c-5.7-5.8-11.4-11.7-17.1-17.5c-0.9-1-1.9-1.5-3.3-1.2c-0.3-1.4-0.5-2.2-2.4-1.4c-6.3,2.8-6.3,2.7-9-3.6c-0.9-2.1-1.9-4.3-2.9-6.4
		c-0.9-1.9-0.9-3.2,1.6-4c2.8-0.9,5.5-2.4,8.2-3.6c1.5,0,2.5,1,3.5,1.9c3.6,3.2,7.1,6.4,11.1,9.1c1,0.8-0.5,1.9,0.3,2.7
		c3,3.4,6,6.9,9.3,10.8c-0.4-2.3-0.4-4.6-0.1-5c1.7,0.2,3.1,1.1,4.3,2.3C879.6,232,881.3,233.4,883.4,234.3z"/>
	<path class="st10" d="M785.3,113.8c-2.3,4.2-3.2,4.6-7.7,3.7c-1.8-0.4-3.6-0.7-5.9-1.2c1.5,3,2.8,5.6,4.1,8.2
		c0.6,1.3,1.2,2.5-0.4,3.5c-4.5-1.7-8.4-4.5-11.8-7.8c-1.5-1.5-3-2.6-5.2-2.4c-0.8-1.3-1.8-2.5-2.4-3.9c-0.9-2.3-2-2.6-3.6-0.7
		c-3.9-1-6.8-4.1-10.7-5.1c-0.7-0.2-0.9-1-0.9-1.7c2.4-5.2,4.8-10.4,7.2-15.6c1.5,0,2.8,0.4,4.2,1c3.5,1.6,6.5,3.9,9.7,5.9
		c-0.5,1.6-2,2.6-2.2,4.7c4.3,0.7,8.5,1.3,12.8,2c0.9,0.8,1.7,1.8,2.7,2.3C778.8,108.7,781.2,112.4,785.3,113.8z"/>
	<path class="st10" d="M443,156.4c3.3,0.9,5.2,3.8,7.8,5.8c1,0.8,0.2,1.8-0.5,2.6c-2.1,2.7-4.2,5.5-6.3,8.2
		c-1.3,1.6-1.2,2.6,0.7,3.6c1.4,0.7,3.1,1.5,3.2,3.5c-3.4,3.8-6,8.3-9.7,11.8c-5.3-2.5-5.2-2.4-8.6,3c-1.2,1.9-1.2,5.3-3.6,5.5
		c-1.9,0.1-3.9-1.8-5.9-2.9c-2.5-1.4-5.2-2.5-7.5-4.4c0.4-2,3.1-1.9,3.4-3.8c0.2-0.2,0.4-0.5,0.6-0.7l0.1-0.1
		c0.2-0.2,0.4-0.4,0.6-0.6c0,0,0.1-0.1,0.1-0.1c0.2-0.2,0.4-0.4,0.6-0.6c0,0,0.1-0.1,0.1-0.1c0.6,0,1-0.1,1.3-0.6l0,0
		c0.4-0.4,0.9-0.9,1.3-1.3l0,0c0.5-0.3,0.7-0.8,0.7-1.3l0,0c0.2-0.2,0.5-0.4,0.7-0.7c1.4,0,1.5-1.8,2.8-2.1c0.5,0,1.1,0.2,1.6,0.1
		c2.1-0.6,7.4-10,7-12.1C436.8,164.8,439.9,160.6,443,156.4z"/>
	<path class="st10" d="M800.4,152c0.1-5.3-0.6-10.5-1.3-16c-2.9,1.3-4,4.5-6.4,6.1c-5.1-1.3-8.1-5.4-11.6-8.9
		c3.2-4.2,6.4-8.3,9.6-12.5c0.8,0.3,1.5-0.1,2.2-0.3c0.3,0.4,0.7,0.8,1,1.2c0.3,0.3,0.6,0.6,0.9,0.9c0.8,0.5,0.9,1.7,1.9,2l-0.1-0.1
		c0,0.9,0.6,1.3,1.4,1.4l-0.1-0.1c0,0.5,0.3,0.7,0.7,0.7l-0.1-0.1c0,0.5,0.3,0.7,0.7,0.7l-0.1-0.1c0,0.5,0.3,0.7,0.7,0.7l-0.1-0.1
		c0,0.5,0.3,0.7,0.7,0.7l-0.1-0.1c0,0.4,0.3,0.7,0.7,0.7l-0.1-0.1c0,0.4,0.3,0.7,0.7,0.7l-0.1-0.1c0.1,0.4,0.3,0.7,0.7,0.7l-0.1-0.1
		c0.2,0.2,0.5,0.5,0.7,0.7l-0.1-0.1c0.2,0.2,0.5,0.5,0.7,0.7c0,0-0.1-0.1-0.1-0.1c0.2,0.2,0.5,0.5,0.7,0.7l0,0
		c0.2,0.2,0.5,0.5,0.7,0.7l0,0c0.2,0.2,0.5,0.5,0.7,0.7l0-0.1c0.2,0.2,0.5,0.5,0.7,0.7l0,0c0.2,0.2,0.5,0.5,0.7,0.7l0,0
		c0.2,0.2,0.5,0.5,0.7,0.7c0,0,0,0,0,0c0.1,0.4,0.3,0.7,0.7,0.7l0,0c0,0.4,0.3,0.7,0.7,0.7l0,0c0,0.4,0.3,0.7,0.7,0.7l0,0
		c0,0.5,0.2,0.7,0.7,0.7l0,0c0,0.5,0.2,0.7,0.7,0.7l0,0c1.4,2.3,3.1,4.3,5.5,5.6c1.9,2.2,3.7,4.4,5.6,6.6
		c-3.8,3.6-7.7,7.2-11.5,10.8c-1-0.9-2.1-1.7-3-2.6C805.5,157.2,803.7,153.9,800.4,152z"/>
	<path class="st10" d="M478.1,117.8c1.1-1,1.8-1.6,3.2,0.1c3.8,4.8,4,5.2,0.9,10.4c-4.5,7.3-8.1,15.1-11.4,22.9
		c-1.7,2.4-3.8,4.5-6.2,6.3c-1.2,0.9-2.5,1.8-2.7,3.5c-2.8-0.6-4.2-3.1-6.2-4.7c-2.5-2-5.1-4-7.1-6.5c2.7-4.8,5.9-9.2,10.9-12
		c1.4,0.6,1.9,2.5,3.9,2.7c0.6-3.9,3.6-6.8,4.1-10.7l-0.1,0.1c0.8,0.3,0.6-0.3,0.6-0.7c1.3-2.8,3.2-5,5.8-6.9
		C475.4,121.2,477.8,120.4,478.1,117.8z"/>
	<path class="st11" d="M508.5,297.8c2.1,0,3.9,0.8,5.3,2.4c1.3,1.4,2.3,1.7,3.9,0.3c3.9-3.2,7.3-3.5,10.3-1c3.3,2.7,4.2,7.6,2,11.5
		c-3.4,6-8.3,10.8-12.8,16c-1,1.1-1.9,1-2.8-0.1c-4.7-5.5-10-10.6-13-17.4C498.9,303.7,502.4,297.9,508.5,297.8z"/>
	<path class="st10" d="M815.5,168.7c-0.4-0.5-1.7-1-0.8-1.7c4.4-3.6,8.1-8.2,13.6-10.4c0.9,2.6,2.7,4.7,4.7,6.5
		c0.2,0.1,0.4,0.3,0.6,0.4l0.2,0.2c-0.1,0.5,0,1,0.6,1.2c0,0,0.1,0.2,0.1,0.2c0.2,0.2,0.3,0.3,0.5,0.5c0,0,0.2,0.2,0.2,0.2
		c0.2,0.2,0.3,0.3,0.5,0.5l0.2,0.2c0.2,0.2,0.4,0.4,0.5,0.5l0.1,0.1c0.2,0.2,0.4,0.4,0.6,0.6c0,0,0.1,0.1,0.1,0.1
		c0.2,0.5,0.7,0.6,1.3,0.7c0.2,0.2,0.4,0.4,0.6,0.5c-0.3,1.5,0.7,2.5,1.4,3.6c3.3,4.9,6.6,9.8,9.9,14.7c1.2,1.7,1.5,2.8-0.9,4.1
		c-6.2,3.3-6,3.4-9.7-2.5c-2.3-3.8-4.8-7.5-7.3-11.2c-0.7-1.1-1.4-2.4-3.2-1.4c-1.4,0.8-2.2,1.2-0.5,2.8c3.7,3.4,6.2,7.8,8.5,12.3
		c0.4,0.8,0.3,1.2-0.7,1.3c-3-4.2-6.8-7.7-10.3-11.4C822.4,177.2,819.6,172.4,815.5,168.7z"/>
	<path class="st9" d="M822.5,151.6c-1.9-2.2-3.7-4.4-5.6-6.6c-1.2-2.4-2.7-4.6-5.5-5.6c0,0,0,0,0,0c0.3-0.8,0-1-0.7-0.7l0,0
		c0.3-0.7,0.1-1-0.7-0.7c0,0,0,0,0,0c0.3-0.8,0.1-1-0.7-0.7c0,0,0,0,0,0c0.3-0.8,0.1-1-0.7-0.7c0,0,0,0,0,0c0.3-0.8,0.1-1-0.7-0.7
		c0,0,0,0,0,0c0.3-0.8,0.1-1-0.7-0.7c0,0,0,0,0,0c0.3-0.8,0.1-1-0.7-0.7c0,0,0,0,0,0c0.3-0.8,0-0.9-0.7-0.7c0,0,0,0.1,0,0.1
		c0.3-0.7,0-1-0.7-0.7c0,0,0,0,0,0c0.3-0.7,0-1-0.7-0.7c0,0,0,0,0,0c0.3-0.8,0-0.9-0.7-0.7c0,0,0.1,0.1,0.1,0.1
		c0.2-0.7,0-0.9-0.7-0.7c0,0,0.1,0.1,0.1,0.1c0.2-0.7-0.1-0.9-0.7-0.7c0,0,0.1,0.1,0.1,0.1c0.2-0.7-0.1-0.9-0.7-0.7
		c0,0,0.1,0.1,0.1,0.1c0.2-0.7-0.1-0.9-0.7-0.7c0,0,0.1,0.1,0.1,0.1c0.2-0.6-0.1-0.9-0.7-0.7c0,0,0.1,0.1,0.1,0.1
		c0.2-0.7-0.1-0.8-0.7-0.7c0,0,0.1,0.1,0.1,0.1c0.1-0.6-0.1-0.9-0.7-0.7c0,0,0.1,0.1,0.1,0.1c0.1-0.6-0.1-0.8-0.7-0.7
		c0,0,0.1,0.1,0.1,0.1c0.1-0.6-0.1-0.8-0.7-0.7c0,0,0.1,0.1,0.1,0.1c0.1-1-0.4-1.4-1.4-1.4c0,0,0.1,0.1,0.1,0.1c-0.3-1-1-1.6-1.9-2
		c-0.3-0.3-0.6-0.6-0.9-0.9c-0.3-0.4-0.7-0.8-1-1.2c-0.7,0.2-1.4,0.6-2.2,0.3c2.2-3,4.4-5.9,6.6-8.9c1.2-1.7,2.4-1.8,3.7-0.1
		c0.5,0.6,1.1,1.2,1.8,1.5c7.7,3.9,10.2,10.6,10.2,18.7c0,1.3,0.4,2.6,0.7,4.2c2.4-1.5,4-3.6,5.8-5.4c1.2-1.2,2.3-1.8,3.7-0.3
		c2.9,3.1,5.8,6.2,8.8,9.3c0.9,0.9,1.2,1.6,0,2.7C828.7,145.4,825.6,148.5,822.5,151.6z"/>
	<path class="st10" d="M398.4,233l-0.3,0c0,0-0.3,0.1-0.3,0.1c-2.1-0.1-3.4,1.1-4.6,2.6c0,0,0,0,0,0c-1.1,0.7-2.8,0.8-2.7,2.7
		c0,0,0.1-0.1,0.1-0.1c-0.8-0.3-0.6,0.3-0.7,0.7c-0.7,0.2-1.5,0.4-2.2,0.6c3-12.5,8.3-24.1,13.3-35.8c2.5-5.9,2.6-5.9,8.1-2.8
		c0.3,0.2,0.6,0.3,0.9,0.5c1.9,1.6,5.4,1.4,5.9,4.4c0.9,5,1.6,10-1.3,14.7c-1.1,1.9-2.3,2.3-4.3,1.3c-6.2-2.8-6.3-2.7-8.8,3.6
		C400.4,228,399.4,230.5,398.4,233z"/>
	<path class="st9" d="M838.9,168.9c-0.2-0.2-0.4-0.4-0.6-0.5c-0.2-0.6-0.7-0.7-1.3-0.7c0,0-0.1-0.1-0.1-0.1
		c-0.2-0.2-0.4-0.4-0.6-0.6c0,0-0.1-0.1-0.1-0.1c-0.2-0.2-0.4-0.4-0.5-0.5c0,0-0.2-0.2-0.2-0.2c-0.2-0.2-0.3-0.3-0.5-0.5
		c0,0-0.2-0.2-0.2-0.2c-0.2-0.2-0.3-0.3-0.5-0.5c0,0-0.1-0.2-0.1-0.2c0.1-0.5,0-1-0.6-1.2c0,0-0.2-0.2-0.2-0.2
		c-0.2-0.1-0.4-0.3-0.6-0.4c-2.1-1.8-3.8-3.8-4.7-6.5c2.1-2.6,5-4.4,7.6-6.6c1.4-1.2,2.4-0.8,3.4,0.5c9.3,11.7,17.7,24,25,37
		c0.8,1.4,0.7,2.2-0.7,3c-0.8,0.4-1.6,0.9-2.3,1.4c-2.5,1.8-4.2,1.3-5.7-1.4c-3.7-6.8-7.9-13.3-12.2-19.7
		C842.2,169.3,841.1,167.9,838.9,168.9z"/>
	<path class="st10" d="M883.4,234.3c-2.1-0.9-3.7-2.3-5.3-3.9c-1.2-1.2-2.6-2.1-4.3-2.3c-2.5-0.9-3-3.3-3.5-5.3
		c-0.9-3.4-2.5-4.8-5.9-3.2c-3.9-2.7-7.5-5.9-11.1-9.1c-0.9-0.8-2-1.9-3.5-1.9c0.2-1.4,1.2-2,2.3-2.6c4.9-2.7,9.8-5.4,14.7-8.1
		c1.1-0.6,1.9-0.9,2.6,0.6c5.6,11.3,10,23.1,14.1,35.1C883.6,233.8,883.4,234.1,883.4,234.3z"/>
	<path class="st9" d="M478.1,117.8c-0.3,2.6-2.7,3.4-4.4,4.6c-2.6,1.8-4.4,4.1-5.8,6.9c-0.4,0.1-0.7,0.2-0.6,0.7
		c0,0,0.1-0.1,0.1-0.1c-3.8,1.5-6.7,3.9-8,8c-5,2.8-8.2,7.1-10.9,12c-3.7-0.4-5.4-4.1-8.5-5.5c-0.7-0.3,0.2-1.2,0.6-1.6
		c9.7-11,20.4-21,31.7-30.3c1.3-1.1,2.5-1,3.3,0.4C476.5,114.5,478.2,115.7,478.1,117.8z"/>
	<path class="st9" d="M785.3,113.8c-4.1-1.3-6.5-5.1-10.2-7.1c-1-0.6-1.8-1.5-2.7-2.3c-3.2-2.8-6.5-5.4-10.6-6.7
		c-3.2-2-6.2-4.3-9.7-5.9c-1.3-0.6-2.7-1.1-4.2-1c-0.1-3.1,1.8-5.4,3.1-7.9c0.6-1.1,1.4-0.6,2.3-0.2c12.7,6,24.4,13.6,35.9,21.6
		c1.5,1,1.6,2,0.5,3.3C788.3,109.6,786.8,111.7,785.3,113.8z"/>
	<path class="st9" d="M739.8,86.7c-2.2-1.1-4.3-2.2-6.5-3.3c-6.1-4-12.8-6.7-20.1-7.4c-4.6-1.9-9.1-3.9-14.1-4.7
		c-0.4-2.4,0.9-4.6,1-6.9c0.1-1.5,1.2-1.3,2.3-1.1c13.8,3.6,27.2,8.1,40.3,13.7c0.8,0.3,2,0.8,1.4,1.9
		C742.6,81.5,742,84.6,739.8,86.7z"/>
	<path class="st7" d="M854.3,227.7c1.4-0.3,2.4,0.3,3.3,1.2c5.7,5.9,11.4,11.7,17.1,17.5c1.3,1.3,1.6,3.2,3.1,4.3
		c-2.7,1.2-4.6,0.4-6.2-2c-1.3-2.2-3-4.1-5-7c-0.5,4-0.9,7.1-1.3,10.2c-0.4,3-5.5,6.4-8.5,5.6c-0.8-0.2-1.4-0.7-1.6-1.5
		c-1.1-4.4-3.1-8.5-2.2-13.3C853.9,237.7,854.5,232.7,854.3,227.7z"/>
	<path class="st9" d="M815.5,168.7c4.1,3.7,6.9,8.5,10.7,12.5c3.5,3.7,7.3,7.2,10.3,11.4c3.4,2,4.3,5.7,6.1,8.8
		c0.5,0.8-0.1,1.3-0.6,1.7c-0.6,0.5-1.3,0.9-2,1.3c-4,2.5-4.7,2.4-7-1.6c-4.6-8.1-9.7-15.8-15.2-23.3c-1.6-2.2-3.3-4.2-4.9-6.4
		c-0.6-0.8-2-1.6-0.9-2.8C812.9,169.3,813.6,167.7,815.5,168.7z"/>
	<path class="st9" d="M443,156.4c-3.1,4.2-6.3,8.4-9.4,12.5c-0.7,0-0.6,1.6-1.8,0.7c-2-1.6-4.1-3-6.2-4.6c-1.2-0.9-1.1-2.1-0.4-3.3
		c2.6-4.1,6.1-7.5,8.5-11.7c0.7-1.3,1.3-0.3,2.1,0.3C438.4,152.2,440.2,154.9,443,156.4z"/>
	<path class="st9" d="M560.7,75.7c-1.7,0.3-2.5,2.4-4.4,2.3c-1-2.6-1.9-5.2-2.9-7.8c-0.5-1.2-0.1-1.9,1.1-2.2c4-1.1,8-2.1,12-3.3
		c1.9-0.6,2.6,0.3,2.9,2c0.3,1.8,0.6,3.5,1,5.3c-2.3,1.4-5.4,0.8-7.5,2.7c0,0,0.1,0,0.1,0C562.1,74.8,560.9,74.2,560.7,75.7z"/>
	<path class="st9" d="M425,181c-1.3,0.3-1.4,2.1-2.8,2.1c-0.2,0.2-0.5,0.4-0.7,0.7c0,0,0,0,0,0c-0.6,0.3-0.7,0.8-0.7,1.3
		c0,0,0,0,0,0c-0.9,0-1.3,0.4-1.3,1.3c0,0,0,0,0,0c-0.5,0-1,0.1-1.3,0.6c0,0-0.1,0.1-0.1,0.1c-0.2,0.2-0.4,0.4-0.6,0.6
		c0,0-0.1,0.1-0.1,0.1c-0.2,0.2-0.4,0.4-0.6,0.6c0,0-0.1,0.1-0.1,0.1c-0.2,0.2-0.4,0.5-0.6,0.7c-0.4,2-3.1,1.8-3.4,3.8
		c-5.2-2.1-5.3-2.4-2.5-7.1c1.7-2.9,3.4-5.8,5-8.7c1.1-2,2.2-2.2,3.9-0.7C421,178.1,423.1,179.5,425,181z"/>
	<path class="st9" d="M461.8,161c0.2-1.7,1.5-2.6,2.7-3.5c2.4-1.8,4.5-3.8,6.2-6.3c1.9,0.1,2.9,1.5,4,2.7c1.2,1.4,1.4,3.2-0.3,4.4
		c-2.7,1.9-4.7,4.4-7,6.6c-1.5,1.4-2.6,1.5-3.6-0.3C463.2,163.4,461,163.1,461.8,161z"/>
	<path class="st7" d="M438.3,191.9c3.7-3.6,6.3-8,9.7-11.8c4.7,2.8,4.9,3.5,2.2,8.1c-0.8,1.3-1.6,2.7-2.4,4
		C445.2,196.6,441.5,196.5,438.3,191.9z"/>
	<path class="st9" d="M740.8,106.4c0.1,0.7,0.2,1.5,0.9,1.7c3.9,1.1,6.8,4.2,10.7,5.1c-2.7,6.5-3.6,6.8-9.6,3.3
		C736.1,112.5,736.1,112.5,740.8,106.4z"/>
	<path class="st9" d="M758.4,117.8c2.2-0.2,3.6,0.9,5.2,2.4c3.4,3.3,7.3,6.1,11.8,7.8c-0.1,0.1-0.1,0.2-0.2,0.3
		c-1.8,1-2,4.3-4.7,3.7c-2.9-0.6-5.5-2.3-7.1-4.8C761.5,124.2,760.1,120.9,758.4,117.8z"/>
	<path class="st9" d="M781.2,133.2c3.5,3.4,6.5,7.5,11.6,8.9c-4.7,4.6-4.7,4.6-9.9,0.7c-0.7-0.5-1.4-1.1-2.1-1.6
		C775.8,137.4,775.9,137.2,781.2,133.2z"/>
	<path class="st9" d="M800.4,152c3.2,1.9,5.1,5.1,7.6,7.7c0.9,0.9,2,1.7,3,2.6c-3.1,4.4-4,4.5-7.5,0.6c-1.1-1.2-2.2-2.5-3.4-3.7
		C796.5,155.5,796.5,155.4,800.4,152z"/>
	<path class="st4" d="M562.9,74.7c2.2-1.9,5.2-1.3,7.5-2.7c0.5,0.4,0.6,0.9,0.5,1.5C568.1,72.8,565.7,74.8,562.9,74.7z"/>
	<path class="st9" d="M507.7,120.5c-0.8-0.2-1.7,1.1-2.3,0.1c-0.3-0.6,0.6-0.7,1.1-0.8C507,119.8,507.6,119.7,507.7,120.5z"/>
	<path class="st12" d="M642.5,551.5c0.7,0.1,1.3,0.2,2,0.3c0,0.3,0,0.7,0,1C643.6,552.6,642.8,552.5,642.5,551.5L642.5,551.5z"/>
	<path class="st13" d="M704.8,340.6c11.2,0.2,21,4,28.9,12.2c11.8,12.2,11.2,30.7-1.2,42.3c-14,13-37.3,13.9-52.2,2
		c-17.7-14.2-16.8-37,2.1-49.8C689.1,342.7,696.6,340.6,704.8,340.6z M728.2,373.5c0-3.1-2.8-5.7-6.2-5.8c-3.4-0.1-6.1,2.2-6.2,5.2
		c-0.1,3.2,2.8,6,6.3,5.9C725.7,378.8,728.2,376.6,728.2,373.5z M700,387.5c0,3,2.9,5.7,6.3,5.7c3.2,0,6.1-2.6,6.2-5.4
		c0.1-3-2.8-5.6-6.3-5.6C702.5,382.3,700,384.5,700,387.5z M696.5,373.4c0-3.1-3-5.8-6.3-5.7c-3.2,0.1-6.1,2.7-6.1,5.6
		c0,3,3,5.6,6.4,5.6C694.1,378.8,696.6,376.5,696.5,373.4z M706.4,365c3.5,0,6.1-2.2,6.1-5.3c0-3.2-3-5.7-6.6-5.6
		c-3.5,0.1-6,2.4-5.9,5.4C700.1,362.7,702.9,365.1,706.4,365z"/>
	<path class="st13" d="M558.9,405.4c-16.1,0.2-30.6-10.8-33.9-26.8c-2.1-10.4,1.6-19.2,9-26.4c14-13.7,37.7-14.7,52.9-2.4
		c16.1,13,15.3,35.9-1.8,48.3C577.6,403.6,569,405.5,558.9,405.4z M550,378.2c6.5,0,6.5,0,6.1,4.3c-0.7,7.2-0.5,7.4,6.7,7.3
		c0.3,0,0.7,0,1,0c5.3-0.1,5.3-0.1,5.4-5.4c0.1-5.3,0.2-5.4,5.5-5.5c8.3-0.2,8.6-0.5,8.4-8.7c0-2.3-0.7-3.3-3.1-3.2
		c-2.2,0.2-4.5-0.1-6.7,0.1c-2.8,0.2-3.4-1-3.5-3.5c-0.1-8.7-0.2-8.5-8.9-8.8c-3.5-0.1-4.3,1-4.2,4.3c0,8.4,2,8.4-8.3,7.7
		c-3.6-0.3-4.6,0.6-5,4.2C542.8,377.8,543.2,378.2,550,378.2z"/>
	<path class="st14" d="M599,406.8c5.3,0,9.5,3.5,9.5,8c0,4.7-4.5,8.7-9.8,8.6c-5.3,0-9.4-3.5-9.5-8
		C589.1,410.7,593.6,406.8,599,406.8z"/>
	<path class="st14" d="M667.1,406.9c5.4,0.1,9.6,3.8,9.5,8.4c-0.1,4.6-4.5,8.2-9.8,8.1c-5.4-0.1-9.6-3.8-9.5-8.4
		C657.4,410.4,661.8,406.8,667.1,406.9z"/>
	<path class="st12" d="M651.2,386.7c0,2.7-2.8,5.3-5.8,5.3c-3.1,0-5.4-2.1-5.3-4.8c0-2.8,2.5-5,5.6-5
		C648.7,382.1,651.2,384.1,651.2,386.7z"/>
	<path class="st12" d="M651.2,371.8c0,3-2.3,5.3-5.3,5.2c-3.3-0.1-5.2-1.7-5.3-4.3c-0.1-3.3,2.3-5.7,5.7-5.6
		C649.2,367,651.2,368.9,651.2,371.8z"/>
	<path class="st12" d="M626.3,372c0,3-2.1,5-5.4,4.9c-3.2,0-5.5-2.1-5.5-5c0-2.9,2.3-5,5.5-4.9C624.1,367,626.3,369.1,626.3,372z"/>
	<path class="st12" d="M621,391.9c-3.3,0.1-5.6-1.9-5.6-4.8c0-3,2.2-5,5.5-5c3.2,0,5.3,1.8,5.4,4.7
		C626.4,389.8,624.3,391.8,621,391.9z"/>
	<path class="st14" d="M546,529.1c-0.1,0.2-0.3,0.6-0.5,0.9c-2.2,3.8-4.4,7.5-6.6,11.3c-0.6,1.1-1.2,1.4-2.4,0.8
		c-2.9-1.5-5.8-2.9-8.7-4.3c-1.6-0.8-2-2-1-3.6c2.3-3.6,5.6-6.4,7.3-10.3c0.3-0.7,1.1-0.7,1.7-0.4c3,1.4,6.1,2.8,9.1,4.2
		C545.6,527.9,546.1,528.2,546,529.1z"/>
	<path class="st14" d="M691.4,538.7c1.4-0.2,2.1,0.4,2.5,1.6c1.3,3.9,2.6,7.8,3.9,11.7c0.5,1.3,0.3,2.1-1.3,2.4
		c-3.3,0.7-6.5,1.6-9.8,2.4c-1.8,0.4-2.4,0-2.8-2c-0.7-3.6-1.7-7.2-2.9-10.7c-0.8-2.5-0.1-3.5,2.4-3.9
		C686.2,539.9,688.8,539.2,691.4,538.7z"/>
	<path class="st12" d="M508.2,100c-2,3.1-3.7,5.4-5.2,7.9c-0.9,1.5-1.7,1.2-2.5,0.1c-0.8-1.1-3-2.1-0.9-3.7
		C501.8,102.5,504.5,101.2,508.2,100z"/>
	<path class="st9" d="M500.6,123.9c-0.1,0.1-0.3,0.2-0.4,0.4c-0.1-0.2-0.3-0.3-0.3-0.5c0,0,0.2-0.2,0.2-0.2
		C500.2,123.7,500.4,123.8,500.6,123.9z"/>
	<path class="st9" d="M503,122.5c0.1-0.3,0.2-0.6,0.3-0.9c0.1,0.1,0.2,0.2,0.2,0.2C503.4,122,503.2,122.3,503,122.5L503,122.5z"/>
	<path class="st9" d="M495.6,127.2c0.1-0.1,0.2-0.2,0.3-0.3c0,0.1,0,0.2,0,0.2C495.8,127.2,495.7,127.2,495.6,127.2
		C495.6,127.2,495.6,127.2,495.6,127.2z"/>
	<path class="st9" d="M503,122.5c-0.1,0.1-0.2,0.2-0.3,0.2C502.8,122.7,502.9,122.6,503,122.5C503,122.5,503,122.5,503,122.5z"/>
	<path class="st12" d="M642.5,551.5c-3.5-0.6-5.9-3.2-9.4-4.7C641,545.2,641.7,545.6,642.5,551.5
		C642.5,551.5,642.5,551.5,642.5,551.5z"/>
	<path class="st4" d="M560.7,75.7c0.2-1.5,1.4-0.9,2.3-1C562.5,75.6,561.4,75.2,560.7,75.7z"/>
	<path class="st4" d="M393.2,235.6c1.1-1.6,2.5-2.8,4.6-2.6C396.2,233.9,395.4,235.9,393.2,235.6z"/>
	<path class="st4" d="M390.5,238.4c-0.1-1.9,1.6-2.1,2.7-2.7C393.3,237.5,391.5,237.6,390.5,238.4z"/>
	<path class="st4" d="M389.8,239c0.1-0.4-0.1-1.1,0.7-0.7C390.5,238.8,390.3,239,389.8,239z"/>
	<path class="st14" d="M713.1,76c7.3,0.7,14,3.4,20.1,7.4c-0.9,0-2,0.2-2.6-0.2c-3.6-2.6-4.4-0.2-5.3,2.7c-0.9,2.9-2.1,5.6-3.1,8.5
		c-0.7,1.9-1.7,2.3-3.6,1.6c-2.2-0.9-4.4-1.7-6.7-2.3c-2.4-0.6-2.7-1.9-2-4c1.1-3.3,2.1-6.6,3.2-9.9C713.6,78.5,713.7,77.3,713.1,76
		z"/>
	<path class="st12" d="M864.3,219.6c3.4-1.7,5-0.3,5.9,3.2c0.5,2,1,4.4,3.5,5.3c-0.3,0.5-0.3,2.7,0.1,5c-3.3-3.9-6.3-7.3-9.3-10.8
		C863.8,221.5,865.3,220.5,864.3,219.6z"/>
	<path class="st12" d="M761.8,97.6c4.1,1.3,7.4,3.9,10.6,6.7c-4.3-0.7-8.5-1.3-12.8-2C759.8,100.3,761.4,99.2,761.8,97.6z"/>
	<path class="st7" d="M419.5,186.5c0-0.9,0.4-1.3,1.3-1.3C420.4,185.6,419.9,186,419.5,186.5z"/>
	<path class="st7" d="M420.8,185.1c0-0.6,0.1-1.1,0.7-1.3C421.5,184.4,421.4,184.9,420.8,185.1z"/>
	<path class="st7" d="M418.2,187.1c0.3-0.6,0.7-0.7,1.3-0.6C419.2,187,418.7,187.2,418.2,187.1z"/>
	<path class="st7" d="M421.5,183.8c0.2-0.2,0.5-0.4,0.7-0.7C422,183.4,421.8,183.6,421.5,183.8z"/>
	<path class="st7" d="M417.5,187.8c0.2-0.2,0.4-0.4,0.6-0.6C417.9,187.4,417.7,187.6,417.5,187.8z"/>
	<path class="st7" d="M416.8,188.5c0.2-0.2,0.4-0.4,0.6-0.6C417.2,188.1,417,188.3,416.8,188.5z"/>
	<path class="st7" d="M416.2,189.3c0.2-0.2,0.4-0.5,0.6-0.7C416.6,188.8,416.4,189,416.2,189.3z"/>
	<path class="st4" d="M811.5,139.3c2.8,0.9,4.2,3.1,5.5,5.6C814.5,143.6,812.9,141.6,811.5,139.3z"/>
	<path class="st4" d="M794.8,122.5c0.9,0.4,1.6,1,1.9,2C795.6,124.3,795.6,123.1,794.8,122.5z"/>
	<path class="st4" d="M792.9,120.4c0.3,0.4,0.7,0.8,1,1.2C793.6,121.3,793.3,120.9,792.9,120.4z"/>
	<path class="st4" d="M796.6,124.5c1,0,1.5,0.4,1.4,1.4C797.2,125.8,796.7,125.4,796.6,124.5z"/>
	<path class="st4" d="M810.8,138.7c0.8-0.3,1,0,0.7,0.7C811,139.4,810.8,139.1,810.8,138.7z"/>
	<path class="st4" d="M810.1,138c0.8-0.3,1,0,0.7,0.7C810.3,138.7,810.1,138.4,810.1,138z"/>
	<path class="st4" d="M809.4,137.3c0.8-0.3,1-0.1,0.7,0.7C809.7,138,809.5,137.8,809.4,137.3z"/>
	<path class="st4" d="M808.8,136.6c0.8-0.3,1-0.1,0.7,0.7C809,137.3,808.8,137.1,808.8,136.6z"/>
	<path class="st4" d="M808.1,136c0.8-0.3,1-0.1,0.7,0.7C808.4,136.6,808.1,136.4,808.1,136z"/>
	<path class="st4" d="M807.4,135.3c0.8-0.3,1-0.1,0.7,0.7C807.9,135.8,807.6,135.5,807.4,135.3z"/>
	<path class="st4" d="M806.1,133.9c0.7-0.2,1-0.1,0.7,0.7C806.5,134.4,806.3,134.2,806.1,133.9z"/>
	<path class="st4" d="M805.4,133.3c0.7-0.3,1,0,0.7,0.7C805.9,133.7,805.6,133.5,805.4,133.3z"/>
	<path class="st4" d="M804.7,132.6c0.7-0.3,1,0,0.7,0.7C805.2,133.1,805,132.8,804.7,132.6z"/>
	<path class="st4" d="M804,131.9c0.7-0.2,1,0,0.7,0.7C804.5,132.4,804.3,132.2,804,131.9z"/>
	<path class="st4" d="M803.4,131.2c0.7-0.2,0.9,0,0.7,0.7C803.8,131.7,803.6,131.5,803.4,131.2z"/>
	<path class="st4" d="M802.7,130.6c0.7-0.2,1,0,0.7,0.7C803.2,131,802.9,130.8,802.7,130.6z"/>
	<path class="st4" d="M802,129.9c0.7-0.2,0.9,0.1,0.7,0.7C802.3,130.6,802.1,130.3,802,129.9z"/>
	<path class="st4" d="M801.3,129.2c0.6-0.1,0.9,0,0.7,0.7C801.6,129.9,801.4,129.7,801.3,129.2z"/>
	<path class="st4" d="M800.7,128.5c0.6-0.2,0.9,0.1,0.7,0.7C801,129.2,800.7,129,800.7,128.5z"/>
	<path class="st4" d="M800,127.9c0.6-0.1,0.9,0.1,0.7,0.7C800.3,128.6,800,128.3,800,127.9z"/>
	<path class="st4" d="M799.3,127.2c0.6-0.1,0.9,0.1,0.7,0.7C799.6,127.9,799.3,127.7,799.3,127.2z"/>
	<path class="st4" d="M798.6,126.5c0.6-0.1,0.9,0.1,0.7,0.7C798.9,127.2,798.7,127,798.6,126.5z"/>
	<path class="st4" d="M798,125.8c0.6-0.1,0.8,0.1,0.7,0.7C798.2,126.6,798,126.3,798,125.8z"/>
	<path class="st4" d="M806.7,134.6c0.8-0.3,1-0.1,0.7,0.7C807.2,135.1,807,134.9,806.7,134.6z"/>
	<path class="st12" d="M459.4,137.9c1.2-4.1,4.2-6.5,8-8c-0.5,3.9-3.5,6.8-4.1,10.7C461.3,140.4,460.8,138.5,459.4,137.9z"/>
	<path class="st12" d="M467.3,129.9c0-0.5,0.3-0.6,0.6-0.7C467.9,129.6,468.1,130.3,467.3,129.9z"/>
	<path class="st7" d="M837.1,167.7c0.6,0,1.1,0.1,1.3,0.7C837.9,168.3,837.4,168.2,837.1,167.7z"/>
	<path class="st7" d="M833.7,163.7c0.6,0.2,0.6,0.7,0.6,1.2C833.7,164.7,833.6,164.2,833.7,163.7z"/>
	<path class="st7" d="M834.5,165c0.2,0.2,0.3,0.3,0.5,0.5C834.8,165.4,834.6,165.2,834.5,165z"/>
	<path class="st7" d="M835.1,165.7c0.2,0.2,0.3,0.3,0.5,0.5C835.5,166,835.3,165.9,835.1,165.7z"/>
	<path class="st7" d="M833,163.1c0.2,0.1,0.4,0.3,0.6,0.4C833.4,163.4,833.2,163.2,833,163.1z"/>
	<path class="st7" d="M835.8,166.4c0.2,0.2,0.4,0.4,0.5,0.5C836.2,166.7,836,166.5,835.8,166.4z"/>
	<path class="st7" d="M836.4,167c0.2,0.2,0.4,0.4,0.6,0.6C836.8,167.4,836.6,167.2,836.4,167z"/>
	<path class="st8" d="M728.2,373.5c0,3.1-2.5,5.3-6,5.4c-3.5,0.1-6.4-2.7-6.3-5.9c0.1-3,2.8-5.3,6.2-5.2
		C725.4,367.8,728.2,370.4,728.2,373.5z"/>
	<path class="st8" d="M700,387.5c0-3.1,2.6-5.3,6.1-5.3c3.5,0,6.4,2.5,6.3,5.6c-0.1,2.8-3,5.4-6.2,5.4
		C702.9,393.3,699.9,390.6,700,387.5z"/>
	<path class="st8" d="M696.5,373.4c0,3.1-2.5,5.4-6,5.5c-3.4,0.1-6.4-2.5-6.4-5.6c0-2.8,2.9-5.5,6.1-5.6
		C693.5,367.7,696.5,370.3,696.5,373.4z"/>
	<path class="st8" d="M706.4,365c-3.5,0-6.3-2.3-6.4-5.4c-0.1-3.1,2.4-5.4,5.9-5.4c3.6-0.1,6.6,2.4,6.6,5.6
		C712.4,362.8,709.9,365,706.4,365z"/>
	<path class="st8" d="M550,378.2c-6.8,0-7.1-0.4-6.5-7.2c0.3-3.6,1.4-4.5,5-4.2c10.3,0.7,8.3,0.7,8.3-7.7c0-3.3,0.7-4.4,4.2-4.3
		c8.7,0.3,8.7,0.1,8.9,8.8c0,2.5,0.7,3.8,3.5,3.5c2.2-0.2,4.5,0.1,6.7-0.1c2.4-0.2,3.1,0.9,3.1,3.2c0.2,8.2-0.1,8.6-8.4,8.7
		c-5.3,0.1-5.4,0.3-5.5,5.5c-0.1,5.4-0.1,5.4-5.4,5.4c-0.3,0-0.7,0-1,0c-7.2,0.1-7.4-0.1-6.7-7.3C556.5,378.2,556.5,378.2,550,378.2
		z"/>
</g>
</svg>
